<mxfile host="app.diagrams.net" modified="2023-09-05T04:15:43.900Z" agent="Mozilla/5.0 (Windows NT 10.0; Win64; x64) AppleWebKit/537.36 (KHTML, like Gecko) Chrome/116.0.0.0 Safari/537.36" etag="9qG8XyELOE2Fsj9vsHmM" version="21.7.1" type="github">
  <diagram name="PÃ¡gina-1" id="NWVNqmMcA7ZJjF6HqMYh">
    <mxGraphModel dx="1760" dy="1028" grid="1" gridSize="10" guides="1" tooltips="1" connect="1" arrows="1" fold="1" page="1" pageScale="1" pageWidth="1920" pageHeight="1200" math="0" shadow="0">
      <root>
        <mxCell id="0" />
        <mxCell id="1" parent="0" />
        <mxCell id="ubl2wMWENlvHtBSMLndZ-1" value="q0" style="ellipse;whiteSpace=wrap;html=1;aspect=fixed;" parent="1" vertex="1">
          <mxGeometry x="160" y="585" width="40" height="40" as="geometry" />
        </mxCell>
        <mxCell id="ubl2wMWENlvHtBSMLndZ-3" value="" style="endArrow=classic;html=1;rounded=0;entryX=0;entryY=0.5;entryDx=0;entryDy=0;" parent="1" target="ubl2wMWENlvHtBSMLndZ-1" edge="1">
          <mxGeometry width="50" height="50" relative="1" as="geometry">
            <mxPoint x="80" y="605" as="sourcePoint" />
            <mxPoint x="130" y="615" as="targetPoint" />
          </mxGeometry>
        </mxCell>
        <mxCell id="ubl2wMWENlvHtBSMLndZ-4" value="" style="endArrow=none;html=1;rounded=0;exitX=1;exitY=0.5;exitDx=0;exitDy=0;" parent="1" source="ubl2wMWENlvHtBSMLndZ-1" edge="1">
          <mxGeometry width="50" height="50" relative="1" as="geometry">
            <mxPoint x="220" y="655" as="sourcePoint" />
            <mxPoint x="240" y="605" as="targetPoint" />
          </mxGeometry>
        </mxCell>
        <mxCell id="ubl2wMWENlvHtBSMLndZ-5" value="" style="endArrow=none;html=1;rounded=0;" parent="1" edge="1">
          <mxGeometry width="50" height="50" relative="1" as="geometry">
            <mxPoint x="460" y="705" as="sourcePoint" />
            <mxPoint x="460" y="625" as="targetPoint" />
          </mxGeometry>
        </mxCell>
        <mxCell id="ubl2wMWENlvHtBSMLndZ-6" value="" style="endArrow=none;html=1;rounded=0;" parent="1" edge="1">
          <mxGeometry width="50" height="50" relative="1" as="geometry">
            <mxPoint x="240" y="605" as="sourcePoint" />
            <mxPoint x="240" y="525" as="targetPoint" />
          </mxGeometry>
        </mxCell>
        <mxCell id="ubl2wMWENlvHtBSMLndZ-7" value="" style="endArrow=classic;html=1;rounded=0;entryX=0;entryY=0.5;entryDx=0;entryDy=0;" parent="1" edge="1">
          <mxGeometry width="50" height="50" relative="1" as="geometry">
            <mxPoint x="240" y="525" as="sourcePoint" />
            <mxPoint x="320" y="525" as="targetPoint" />
          </mxGeometry>
        </mxCell>
        <mxCell id="ubl2wMWENlvHtBSMLndZ-8" value="" style="endArrow=classic;html=1;rounded=0;entryX=0;entryY=0.5;entryDx=0;entryDy=0;" parent="1" edge="1">
          <mxGeometry width="50" height="50" relative="1" as="geometry">
            <mxPoint x="240" y="604.81" as="sourcePoint" />
            <mxPoint x="320" y="604.81" as="targetPoint" />
          </mxGeometry>
        </mxCell>
        <mxCell id="ubl2wMWENlvHtBSMLndZ-9" value="" style="endArrow=classic;html=1;rounded=0;entryX=0;entryY=0.5;entryDx=0;entryDy=0;" parent="1" edge="1">
          <mxGeometry width="50" height="50" relative="1" as="geometry">
            <mxPoint x="460" y="705" as="sourcePoint" />
            <mxPoint x="540" y="705" as="targetPoint" />
          </mxGeometry>
        </mxCell>
        <mxCell id="ubl2wMWENlvHtBSMLndZ-10" value="q1" style="ellipse;whiteSpace=wrap;html=1;aspect=fixed;" parent="1" vertex="1">
          <mxGeometry x="320" y="505" width="40" height="40" as="geometry" />
        </mxCell>
        <mxCell id="ubl2wMWENlvHtBSMLndZ-11" value="q4" style="ellipse;whiteSpace=wrap;html=1;aspect=fixed;" parent="1" vertex="1">
          <mxGeometry x="320" y="585" width="40" height="40" as="geometry" />
        </mxCell>
        <mxCell id="ubl2wMWENlvHtBSMLndZ-12" value="q7" style="ellipse;whiteSpace=wrap;html=1;aspect=fixed;" parent="1" vertex="1">
          <mxGeometry x="540" y="685" width="40" height="40" as="geometry" />
        </mxCell>
        <mxCell id="ubl2wMWENlvHtBSMLndZ-18" value="" style="endArrow=classic;html=1;rounded=0;entryX=0;entryY=0.5;entryDx=0;entryDy=0;" parent="1" edge="1">
          <mxGeometry width="50" height="50" relative="1" as="geometry">
            <mxPoint x="360" y="525" as="sourcePoint" />
            <mxPoint x="440" y="525" as="targetPoint" />
          </mxGeometry>
        </mxCell>
        <mxCell id="ubl2wMWENlvHtBSMLndZ-19" value="" style="endArrow=classic;html=1;rounded=0;entryX=0;entryY=0.5;entryDx=0;entryDy=0;" parent="1" edge="1">
          <mxGeometry width="50" height="50" relative="1" as="geometry">
            <mxPoint x="360" y="604.81" as="sourcePoint" />
            <mxPoint x="440" y="604.81" as="targetPoint" />
          </mxGeometry>
        </mxCell>
        <mxCell id="ubl2wMWENlvHtBSMLndZ-21" value="q2" style="ellipse;whiteSpace=wrap;html=1;aspect=fixed;" parent="1" vertex="1">
          <mxGeometry x="440" y="505" width="40" height="40" as="geometry" />
        </mxCell>
        <mxCell id="ubl2wMWENlvHtBSMLndZ-22" value="q5" style="ellipse;whiteSpace=wrap;html=1;aspect=fixed;" parent="1" vertex="1">
          <mxGeometry x="440" y="585" width="40" height="40" as="geometry" />
        </mxCell>
        <mxCell id="ubl2wMWENlvHtBSMLndZ-26" value="" style="endArrow=classic;html=1;rounded=0;entryX=0;entryY=0.5;entryDx=0;entryDy=0;" parent="1" edge="1">
          <mxGeometry width="50" height="50" relative="1" as="geometry">
            <mxPoint x="600" y="525" as="sourcePoint" />
            <mxPoint x="680" y="525" as="targetPoint" />
          </mxGeometry>
        </mxCell>
        <mxCell id="ubl2wMWENlvHtBSMLndZ-28" value="" style="endArrow=classic;html=1;rounded=0;entryX=0;entryY=0.5;entryDx=0;entryDy=0;" parent="1" edge="1">
          <mxGeometry width="50" height="50" relative="1" as="geometry">
            <mxPoint x="580" y="705" as="sourcePoint" />
            <mxPoint x="660" y="705" as="targetPoint" />
          </mxGeometry>
        </mxCell>
        <mxCell id="ubl2wMWENlvHtBSMLndZ-29" value="q13" style="ellipse;whiteSpace=wrap;html=1;aspect=fixed;fillColor=#ffe6cc;strokeColor=#d79b00;" parent="1" vertex="1">
          <mxGeometry x="680" y="505" width="40" height="40" as="geometry" />
        </mxCell>
        <mxCell id="ubl2wMWENlvHtBSMLndZ-31" value="q19" style="ellipse;whiteSpace=wrap;html=1;aspect=fixed;fillColor=#ffe6cc;strokeColor=#d79b00;" parent="1" vertex="1">
          <mxGeometry x="660" y="685" width="40" height="40" as="geometry" />
        </mxCell>
        <mxCell id="ubl2wMWENlvHtBSMLndZ-36" value="c" style="text;strokeColor=none;fillColor=none;html=1;fontSize=24;fontStyle=1;verticalAlign=middle;align=center;" parent="1" vertex="1">
          <mxGeometry x="390" y="495" width="20" height="20" as="geometry" />
        </mxCell>
        <mxCell id="ubl2wMWENlvHtBSMLndZ-39" value="b" style="text;strokeColor=none;fillColor=none;html=1;fontSize=24;fontStyle=1;verticalAlign=middle;align=center;" parent="1" vertex="1">
          <mxGeometry x="270" y="495" width="20" height="20" as="geometry" />
        </mxCell>
        <mxCell id="ubl2wMWENlvHtBSMLndZ-40" value="d" style="text;strokeColor=none;fillColor=none;html=1;fontSize=24;fontStyle=1;verticalAlign=middle;align=center;" parent="1" vertex="1">
          <mxGeometry x="270" y="575" width="20" height="20" as="geometry" />
        </mxCell>
        <mxCell id="ubl2wMWENlvHtBSMLndZ-41" value="d" style="text;strokeColor=none;fillColor=none;html=1;fontSize=24;fontStyle=1;verticalAlign=middle;align=center;" parent="1" vertex="1">
          <mxGeometry x="490" y="675" width="20" height="20" as="geometry" />
        </mxCell>
        <mxCell id="ubl2wMWENlvHtBSMLndZ-42" value="a" style="text;strokeColor=none;fillColor=none;html=1;fontSize=24;fontStyle=1;verticalAlign=middle;align=center;" parent="1" vertex="1">
          <mxGeometry x="390" y="575" width="20" height="20" as="geometry" />
        </mxCell>
        <mxCell id="ubl2wMWENlvHtBSMLndZ-43" value="c" style="text;strokeColor=none;fillColor=none;html=1;fontSize=24;fontStyle=1;verticalAlign=middle;align=center;" parent="1" vertex="1">
          <mxGeometry x="630" y="495" width="20" height="20" as="geometry" />
        </mxCell>
        <mxCell id="ubl2wMWENlvHtBSMLndZ-46" value="a" style="text;strokeColor=none;fillColor=none;html=1;fontSize=24;fontStyle=1;verticalAlign=middle;align=center;" parent="1" vertex="1">
          <mxGeometry x="610" y="675" width="20" height="20" as="geometry" />
        </mxCell>
        <mxCell id="ubl2wMWENlvHtBSMLndZ-113" value="q8" style="ellipse;whiteSpace=wrap;html=1;aspect=fixed;" parent="1" vertex="1">
          <mxGeometry x="750" y="585" width="40" height="40" as="geometry" />
        </mxCell>
        <mxCell id="ubl2wMWENlvHtBSMLndZ-115" value="" style="endArrow=none;html=1;rounded=0;exitX=1;exitY=0.5;exitDx=0;exitDy=0;" parent="1" source="ubl2wMWENlvHtBSMLndZ-113" edge="1">
          <mxGeometry width="50" height="50" relative="1" as="geometry">
            <mxPoint x="810" y="655" as="sourcePoint" />
            <mxPoint x="830" y="605" as="targetPoint" />
          </mxGeometry>
        </mxCell>
        <mxCell id="ubl2wMWENlvHtBSMLndZ-116" value="" style="endArrow=none;html=1;rounded=0;" parent="1" edge="1">
          <mxGeometry width="50" height="50" relative="1" as="geometry">
            <mxPoint x="830" y="888" as="sourcePoint" />
            <mxPoint x="830" y="463" as="targetPoint" />
          </mxGeometry>
        </mxCell>
        <mxCell id="ubl2wMWENlvHtBSMLndZ-117" value="" style="endArrow=none;html=1;rounded=0;" parent="1" edge="1">
          <mxGeometry width="50" height="50" relative="1" as="geometry">
            <mxPoint x="830" y="463" as="sourcePoint" />
            <mxPoint x="830" y="323" as="targetPoint" />
          </mxGeometry>
        </mxCell>
        <mxCell id="ubl2wMWENlvHtBSMLndZ-118" value="" style="endArrow=classic;html=1;rounded=0;entryX=0;entryY=0.5;entryDx=0;entryDy=0;" parent="1" edge="1">
          <mxGeometry width="50" height="50" relative="1" as="geometry">
            <mxPoint x="830" y="323" as="sourcePoint" />
            <mxPoint x="910" y="323" as="targetPoint" />
          </mxGeometry>
        </mxCell>
        <mxCell id="ubl2wMWENlvHtBSMLndZ-119" value="" style="endArrow=classic;html=1;rounded=0;entryX=0;entryY=0.5;entryDx=0;entryDy=0;" parent="1" edge="1">
          <mxGeometry width="50" height="50" relative="1" as="geometry">
            <mxPoint x="830" y="462.80999999999995" as="sourcePoint" />
            <mxPoint x="910" y="462.80999999999995" as="targetPoint" />
          </mxGeometry>
        </mxCell>
        <mxCell id="ubl2wMWENlvHtBSMLndZ-120" value="" style="endArrow=classic;html=1;rounded=0;entryX=0;entryY=0.5;entryDx=0;entryDy=0;" parent="1" edge="1">
          <mxGeometry width="50" height="50" relative="1" as="geometry">
            <mxPoint x="830" y="888" as="sourcePoint" />
            <mxPoint x="910" y="888" as="targetPoint" />
          </mxGeometry>
        </mxCell>
        <mxCell id="ubl2wMWENlvHtBSMLndZ-121" value="q9" style="ellipse;whiteSpace=wrap;html=1;aspect=fixed;" parent="1" vertex="1">
          <mxGeometry x="910" y="303" width="40" height="40" as="geometry" />
        </mxCell>
        <mxCell id="ubl2wMWENlvHtBSMLndZ-122" value="q12" style="ellipse;whiteSpace=wrap;html=1;aspect=fixed;" parent="1" vertex="1">
          <mxGeometry x="910" y="443" width="40" height="40" as="geometry" />
        </mxCell>
        <mxCell id="ubl2wMWENlvHtBSMLndZ-123" value="q18" style="ellipse;whiteSpace=wrap;html=1;aspect=fixed;" parent="1" vertex="1">
          <mxGeometry x="910" y="868" width="40" height="40" as="geometry" />
        </mxCell>
        <mxCell id="ubl2wMWENlvHtBSMLndZ-124" value="" style="endArrow=classic;html=1;rounded=0;entryX=0;entryY=0.5;entryDx=0;entryDy=0;" parent="1" edge="1">
          <mxGeometry width="50" height="50" relative="1" as="geometry">
            <mxPoint x="950" y="323" as="sourcePoint" />
            <mxPoint x="1030" y="323" as="targetPoint" />
          </mxGeometry>
        </mxCell>
        <mxCell id="ubl2wMWENlvHtBSMLndZ-125" value="" style="endArrow=classic;html=1;rounded=0;entryX=0;entryY=0.5;entryDx=0;entryDy=0;" parent="1" edge="1">
          <mxGeometry width="50" height="50" relative="1" as="geometry">
            <mxPoint x="950" y="462.80999999999995" as="sourcePoint" />
            <mxPoint x="1030" y="462.80999999999995" as="targetPoint" />
          </mxGeometry>
        </mxCell>
        <mxCell id="ubl2wMWENlvHtBSMLndZ-126" value="" style="endArrow=classic;html=1;rounded=0;entryX=0;entryY=0.5;entryDx=0;entryDy=0;" parent="1" edge="1">
          <mxGeometry width="50" height="50" relative="1" as="geometry">
            <mxPoint x="950" y="888" as="sourcePoint" />
            <mxPoint x="1030" y="888" as="targetPoint" />
          </mxGeometry>
        </mxCell>
        <mxCell id="ubl2wMWENlvHtBSMLndZ-127" value="q10" style="ellipse;whiteSpace=wrap;html=1;aspect=fixed;" parent="1" vertex="1">
          <mxGeometry x="1030" y="303" width="40" height="40" as="geometry" />
        </mxCell>
        <mxCell id="ubl2wMWENlvHtBSMLndZ-128" value="q13" style="ellipse;whiteSpace=wrap;html=1;aspect=fixed;" parent="1" vertex="1">
          <mxGeometry x="1030" y="443" width="40" height="40" as="geometry" />
        </mxCell>
        <mxCell id="ubl2wMWENlvHtBSMLndZ-129" value="q19" style="ellipse;whiteSpace=wrap;html=1;aspect=fixed;" parent="1" vertex="1">
          <mxGeometry x="1030" y="868" width="40" height="40" as="geometry" />
        </mxCell>
        <mxCell id="ubl2wMWENlvHtBSMLndZ-130" value="" style="endArrow=classic;html=1;rounded=0;entryX=0;entryY=0.5;entryDx=0;entryDy=0;" parent="1" edge="1">
          <mxGeometry width="50" height="50" relative="1" as="geometry">
            <mxPoint x="1070" y="323" as="sourcePoint" />
            <mxPoint x="1150" y="323" as="targetPoint" />
          </mxGeometry>
        </mxCell>
        <mxCell id="ubl2wMWENlvHtBSMLndZ-131" value="" style="endArrow=classic;html=1;rounded=0;entryX=0;entryY=0.5;entryDx=0;entryDy=0;" parent="1" edge="1">
          <mxGeometry width="50" height="50" relative="1" as="geometry">
            <mxPoint x="1070" y="462.80999999999995" as="sourcePoint" />
            <mxPoint x="1150" y="462.80999999999995" as="targetPoint" />
          </mxGeometry>
        </mxCell>
        <mxCell id="ubl2wMWENlvHtBSMLndZ-132" value="" style="endArrow=classic;html=1;rounded=0;entryX=0;entryY=0.5;entryDx=0;entryDy=0;" parent="1" edge="1">
          <mxGeometry width="50" height="50" relative="1" as="geometry">
            <mxPoint x="1070" y="888" as="sourcePoint" />
            <mxPoint x="1150" y="888" as="targetPoint" />
          </mxGeometry>
        </mxCell>
        <mxCell id="ubl2wMWENlvHtBSMLndZ-133" value="q11" style="ellipse;whiteSpace=wrap;html=1;aspect=fixed;" parent="1" vertex="1">
          <mxGeometry x="1150" y="303" width="40" height="40" as="geometry" />
        </mxCell>
        <mxCell id="ubl2wMWENlvHtBSMLndZ-134" value="q14" style="ellipse;whiteSpace=wrap;html=1;aspect=fixed;" parent="1" vertex="1">
          <mxGeometry x="1150" y="443" width="40" height="40" as="geometry" />
        </mxCell>
        <mxCell id="ubl2wMWENlvHtBSMLndZ-135" value="q20" style="ellipse;whiteSpace=wrap;html=1;aspect=fixed;" parent="1" vertex="1">
          <mxGeometry x="1150" y="868" width="40" height="40" as="geometry" />
        </mxCell>
        <mxCell id="ubl2wMWENlvHtBSMLndZ-136" value="a" style="text;strokeColor=none;fillColor=none;html=1;fontSize=24;fontStyle=1;verticalAlign=middle;align=center;" parent="1" vertex="1">
          <mxGeometry x="980" y="293" width="20" height="20" as="geometry" />
        </mxCell>
        <mxCell id="ubl2wMWENlvHtBSMLndZ-137" value="a" style="text;strokeColor=none;fillColor=none;html=1;fontSize=24;fontStyle=1;verticalAlign=middle;align=center;" parent="1" vertex="1">
          <mxGeometry x="860" y="293" width="20" height="20" as="geometry" />
        </mxCell>
        <mxCell id="ubl2wMWENlvHtBSMLndZ-138" value="b" style="text;strokeColor=none;fillColor=none;html=1;fontSize=24;fontStyle=1;verticalAlign=middle;align=center;" parent="1" vertex="1">
          <mxGeometry x="860" y="433" width="20" height="20" as="geometry" />
        </mxCell>
        <mxCell id="ubl2wMWENlvHtBSMLndZ-139" value="d" style="text;strokeColor=none;fillColor=none;html=1;fontSize=24;fontStyle=1;verticalAlign=middle;align=center;" parent="1" vertex="1">
          <mxGeometry x="860" y="858" width="20" height="20" as="geometry" />
        </mxCell>
        <mxCell id="ubl2wMWENlvHtBSMLndZ-140" value="c" style="text;strokeColor=none;fillColor=none;html=1;fontSize=24;fontStyle=1;verticalAlign=middle;align=center;" parent="1" vertex="1">
          <mxGeometry x="980" y="433" width="20" height="20" as="geometry" />
        </mxCell>
        <mxCell id="ubl2wMWENlvHtBSMLndZ-141" value="b" style="text;strokeColor=none;fillColor=none;html=1;fontSize=24;fontStyle=1;verticalAlign=middle;align=center;" parent="1" vertex="1">
          <mxGeometry x="1100" y="293" width="20" height="20" as="geometry" />
        </mxCell>
        <mxCell id="ubl2wMWENlvHtBSMLndZ-142" value="d" style="text;strokeColor=none;fillColor=none;html=1;fontSize=24;fontStyle=1;verticalAlign=middle;align=center;" parent="1" vertex="1">
          <mxGeometry x="1100" y="433" width="20" height="20" as="geometry" />
        </mxCell>
        <mxCell id="ubl2wMWENlvHtBSMLndZ-143" value="a" style="text;strokeColor=none;fillColor=none;html=1;fontSize=24;fontStyle=1;verticalAlign=middle;align=center;" parent="1" vertex="1">
          <mxGeometry x="980" y="858" width="20" height="20" as="geometry" />
        </mxCell>
        <mxCell id="ubl2wMWENlvHtBSMLndZ-144" value="c" style="text;strokeColor=none;fillColor=none;html=1;fontSize=24;fontStyle=1;verticalAlign=middle;align=center;" parent="1" vertex="1">
          <mxGeometry x="1100" y="858" width="20" height="20" as="geometry" />
        </mxCell>
        <mxCell id="ubl2wMWENlvHtBSMLndZ-151" value="" style="endArrow=classic;html=1;rounded=0;entryX=0;entryY=0.5;entryDx=0;entryDy=0;" parent="1" edge="1">
          <mxGeometry width="50" height="50" relative="1" as="geometry">
            <mxPoint x="1190" y="323" as="sourcePoint" />
            <mxPoint x="1270" y="323" as="targetPoint" />
          </mxGeometry>
        </mxCell>
        <mxCell id="ubl2wMWENlvHtBSMLndZ-152" value="" style="endArrow=classic;html=1;rounded=0;entryX=0;entryY=0.5;entryDx=0;entryDy=0;" parent="1" edge="1">
          <mxGeometry width="50" height="50" relative="1" as="geometry">
            <mxPoint x="1190" y="462.80999999999995" as="sourcePoint" />
            <mxPoint x="1270" y="462.80999999999995" as="targetPoint" />
          </mxGeometry>
        </mxCell>
        <mxCell id="ubl2wMWENlvHtBSMLndZ-153" value="" style="endArrow=classic;html=1;rounded=0;entryX=0;entryY=0.5;entryDx=0;entryDy=0;" parent="1" edge="1">
          <mxGeometry width="50" height="50" relative="1" as="geometry">
            <mxPoint x="1190" y="888" as="sourcePoint" />
            <mxPoint x="1270" y="888" as="targetPoint" />
          </mxGeometry>
        </mxCell>
        <mxCell id="ubl2wMWENlvHtBSMLndZ-154" value="q30" style="ellipse;whiteSpace=wrap;html=1;aspect=fixed;fillColor=#ffe6cc;strokeColor=#d79b00;" parent="1" vertex="1">
          <mxGeometry x="1270" y="303" width="40" height="40" as="geometry" />
        </mxCell>
        <mxCell id="ubl2wMWENlvHtBSMLndZ-155" value="q22" style="ellipse;whiteSpace=wrap;html=1;aspect=fixed;fillColor=#ffe6cc;strokeColor=#d79b00;" parent="1" vertex="1">
          <mxGeometry x="1270" y="443" width="40" height="40" as="geometry" />
        </mxCell>
        <mxCell id="ubl2wMWENlvHtBSMLndZ-156" value="q27" style="ellipse;whiteSpace=wrap;html=1;aspect=fixed;fillColor=#ffe6cc;strokeColor=#d79b00;" parent="1" vertex="1">
          <mxGeometry x="1270" y="868" width="40" height="40" as="geometry" />
        </mxCell>
        <mxCell id="ubl2wMWENlvHtBSMLndZ-157" value="c" style="text;strokeColor=none;fillColor=none;html=1;fontSize=24;fontStyle=1;verticalAlign=middle;align=center;" parent="1" vertex="1">
          <mxGeometry x="1220" y="293" width="20" height="20" as="geometry" />
        </mxCell>
        <mxCell id="ubl2wMWENlvHtBSMLndZ-158" value="a" style="text;strokeColor=none;fillColor=none;html=1;fontSize=24;fontStyle=1;verticalAlign=middle;align=center;" parent="1" vertex="1">
          <mxGeometry x="1220" y="433" width="20" height="20" as="geometry" />
        </mxCell>
        <mxCell id="ubl2wMWENlvHtBSMLndZ-159" value="b" style="text;strokeColor=none;fillColor=none;html=1;fontSize=24;fontStyle=1;verticalAlign=middle;align=center;" parent="1" vertex="1">
          <mxGeometry x="1220" y="858" width="20" height="20" as="geometry" />
        </mxCell>
        <mxCell id="ubl2wMWENlvHtBSMLndZ-160" value="" style="endArrow=none;html=1;rounded=0;" parent="1" edge="1">
          <mxGeometry width="50" height="50" relative="1" as="geometry">
            <mxPoint x="929.5" y="303" as="sourcePoint" />
            <mxPoint x="930" y="100" as="targetPoint" />
          </mxGeometry>
        </mxCell>
        <mxCell id="ubl2wMWENlvHtBSMLndZ-161" value="" style="endArrow=classic;html=1;rounded=0;entryX=0;entryY=0.5;entryDx=0;entryDy=0;" parent="1" target="ubl2wMWENlvHtBSMLndZ-163" edge="1">
          <mxGeometry width="50" height="50" relative="1" as="geometry">
            <mxPoint x="930" y="163" as="sourcePoint" />
            <mxPoint x="940" y="162.57999999999993" as="targetPoint" />
          </mxGeometry>
        </mxCell>
        <mxCell id="ubl2wMWENlvHtBSMLndZ-163" value="q15" style="ellipse;whiteSpace=wrap;html=1;aspect=fixed;" parent="1" vertex="1">
          <mxGeometry x="970" y="143" width="40" height="40" as="geometry" />
        </mxCell>
        <mxCell id="ubl2wMWENlvHtBSMLndZ-164" value="" style="endArrow=classic;html=1;rounded=0;entryX=0;entryY=0.5;entryDx=0;entryDy=0;" parent="1" target="ubl2wMWENlvHtBSMLndZ-165" edge="1">
          <mxGeometry width="50" height="50" relative="1" as="geometry">
            <mxPoint x="930" y="223" as="sourcePoint" />
            <mxPoint x="940" y="222.57999999999993" as="targetPoint" />
          </mxGeometry>
        </mxCell>
        <mxCell id="ubl2wMWENlvHtBSMLndZ-165" value="q18" style="ellipse;whiteSpace=wrap;html=1;aspect=fixed;" parent="1" vertex="1">
          <mxGeometry x="970" y="203" width="40" height="40" as="geometry" />
        </mxCell>
        <mxCell id="ubl2wMWENlvHtBSMLndZ-176" value="" style="endArrow=classic;html=1;rounded=0;entryX=0;entryY=0.5;entryDx=0;entryDy=0;" parent="1" target="ubl2wMWENlvHtBSMLndZ-177" edge="1">
          <mxGeometry width="50" height="50" relative="1" as="geometry">
            <mxPoint x="930" y="988" as="sourcePoint" />
            <mxPoint x="940" y="987.5799999999999" as="targetPoint" />
          </mxGeometry>
        </mxCell>
        <mxCell id="ubl2wMWENlvHtBSMLndZ-177" value="q18" style="ellipse;whiteSpace=wrap;html=1;aspect=fixed;" parent="1" vertex="1">
          <mxGeometry x="970" y="968" width="40" height="40" as="geometry" />
        </mxCell>
        <mxCell id="ubl2wMWENlvHtBSMLndZ-178" value="" style="endArrow=classic;html=1;rounded=0;entryX=0;entryY=0.5;entryDx=0;entryDy=0;" parent="1" target="ubl2wMWENlvHtBSMLndZ-179" edge="1">
          <mxGeometry width="50" height="50" relative="1" as="geometry">
            <mxPoint x="930" y="1048" as="sourcePoint" />
            <mxPoint x="940" y="1047.58" as="targetPoint" />
          </mxGeometry>
        </mxCell>
        <mxCell id="ubl2wMWENlvHtBSMLndZ-179" value="q15" style="ellipse;whiteSpace=wrap;html=1;aspect=fixed;" parent="1" vertex="1">
          <mxGeometry x="970" y="1028" width="40" height="40" as="geometry" />
        </mxCell>
        <mxCell id="ubl2wMWENlvHtBSMLndZ-180" value="" style="endArrow=none;html=1;rounded=0;" parent="1" edge="1">
          <mxGeometry width="50" height="50" relative="1" as="geometry">
            <mxPoint x="930" y="1110" as="sourcePoint" />
            <mxPoint x="929.5799999999999" y="908" as="targetPoint" />
          </mxGeometry>
        </mxCell>
        <mxCell id="ubl2wMWENlvHtBSMLndZ-191" value="" style="endArrow=none;html=1;rounded=0;" parent="1" edge="1">
          <mxGeometry width="50" height="50" relative="1" as="geometry">
            <mxPoint x="930.21" y="443" as="sourcePoint" />
            <mxPoint x="930" y="383" as="targetPoint" />
          </mxGeometry>
        </mxCell>
        <mxCell id="ubl2wMWENlvHtBSMLndZ-192" value="" style="endArrow=classic;html=1;rounded=0;entryX=0;entryY=0.5;entryDx=0;entryDy=0;" parent="1" edge="1">
          <mxGeometry width="50" height="50" relative="1" as="geometry">
            <mxPoint x="930" y="382.43000000000006" as="sourcePoint" />
            <mxPoint x="970" y="382.43000000000006" as="targetPoint" />
          </mxGeometry>
        </mxCell>
        <mxCell id="ubl2wMWENlvHtBSMLndZ-193" value="q9" style="ellipse;whiteSpace=wrap;html=1;aspect=fixed;" parent="1" vertex="1">
          <mxGeometry x="970" y="363" width="40" height="40" as="geometry" />
        </mxCell>
        <mxCell id="ubl2wMWENlvHtBSMLndZ-194" value="" style="endArrow=none;html=1;rounded=0;" parent="1" edge="1">
          <mxGeometry width="50" height="50" relative="1" as="geometry">
            <mxPoint x="1050.71" y="443" as="sourcePoint" />
            <mxPoint x="1050.5" y="383" as="targetPoint" />
          </mxGeometry>
        </mxCell>
        <mxCell id="ubl2wMWENlvHtBSMLndZ-195" value="" style="endArrow=classic;html=1;rounded=0;entryX=0;entryY=0.5;entryDx=0;entryDy=0;" parent="1" edge="1">
          <mxGeometry width="50" height="50" relative="1" as="geometry">
            <mxPoint x="1050.5" y="382.43000000000006" as="sourcePoint" />
            <mxPoint x="1090.5" y="382.43000000000006" as="targetPoint" />
          </mxGeometry>
        </mxCell>
        <mxCell id="ubl2wMWENlvHtBSMLndZ-196" value="q9" style="ellipse;whiteSpace=wrap;html=1;aspect=fixed;" parent="1" vertex="1">
          <mxGeometry x="1090.5" y="363" width="40" height="40" as="geometry" />
        </mxCell>
        <mxCell id="ubl2wMWENlvHtBSMLndZ-197" value="" style="endArrow=none;html=1;rounded=0;" parent="1" edge="1">
          <mxGeometry width="50" height="50" relative="1" as="geometry">
            <mxPoint x="1170.21" y="443" as="sourcePoint" />
            <mxPoint x="1170" y="383" as="targetPoint" />
          </mxGeometry>
        </mxCell>
        <mxCell id="ubl2wMWENlvHtBSMLndZ-198" value="" style="endArrow=classic;html=1;rounded=0;entryX=0;entryY=0.5;entryDx=0;entryDy=0;" parent="1" edge="1">
          <mxGeometry width="50" height="50" relative="1" as="geometry">
            <mxPoint x="1170" y="382.43000000000006" as="sourcePoint" />
            <mxPoint x="1210" y="382.43000000000006" as="targetPoint" />
          </mxGeometry>
        </mxCell>
        <mxCell id="ubl2wMWENlvHtBSMLndZ-199" value="q12" style="ellipse;whiteSpace=wrap;html=1;aspect=fixed;" parent="1" vertex="1">
          <mxGeometry x="1210" y="363" width="40" height="40" as="geometry" />
        </mxCell>
        <mxCell id="ubl2wMWENlvHtBSMLndZ-209" value="d" style="text;strokeColor=none;fillColor=none;html=1;fontSize=24;fontStyle=1;verticalAlign=middle;align=center;" parent="1" vertex="1">
          <mxGeometry x="940" y="193" width="20" height="20" as="geometry" />
        </mxCell>
        <mxCell id="ubl2wMWENlvHtBSMLndZ-210" value="c" style="text;strokeColor=none;fillColor=none;html=1;fontSize=24;fontStyle=1;verticalAlign=middle;align=center;" parent="1" vertex="1">
          <mxGeometry x="940" y="133" width="20" height="20" as="geometry" />
        </mxCell>
        <mxCell id="ubl2wMWENlvHtBSMLndZ-215" value="a" style="text;strokeColor=none;fillColor=none;html=1;fontSize=24;fontStyle=1;verticalAlign=middle;align=center;" parent="1" vertex="1">
          <mxGeometry x="940" y="353" width="20" height="20" as="geometry" />
        </mxCell>
        <mxCell id="ubl2wMWENlvHtBSMLndZ-216" value="a" style="text;strokeColor=none;fillColor=none;html=1;fontSize=24;fontStyle=1;verticalAlign=middle;align=center;" parent="1" vertex="1">
          <mxGeometry x="1060" y="353" width="20" height="20" as="geometry" />
        </mxCell>
        <mxCell id="ubl2wMWENlvHtBSMLndZ-217" value="b" style="text;strokeColor=none;fillColor=none;html=1;fontSize=24;fontStyle=1;verticalAlign=middle;align=center;" parent="1" vertex="1">
          <mxGeometry x="1180" y="353" width="20" height="20" as="geometry" />
        </mxCell>
        <mxCell id="ubl2wMWENlvHtBSMLndZ-221" value="d" style="text;strokeColor=none;fillColor=none;html=1;fontSize=24;fontStyle=1;verticalAlign=middle;align=center;" parent="1" vertex="1">
          <mxGeometry x="940" y="958" width="20" height="20" as="geometry" />
        </mxCell>
        <mxCell id="ubl2wMWENlvHtBSMLndZ-222" value="c" style="text;strokeColor=none;fillColor=none;html=1;fontSize=24;fontStyle=1;verticalAlign=middle;align=center;" parent="1" vertex="1">
          <mxGeometry x="940" y="1018" width="20" height="20" as="geometry" />
        </mxCell>
        <mxCell id="ubl2wMWENlvHtBSMLndZ-365" value="&lt;font style=&quot;background-color: rgb(255, 255, 255);&quot;&gt;Aluno: Rafael Dantas Boeira&lt;/font&gt;" style="text;html=1;fontSize=24;fontStyle=1;verticalAlign=middle;align=center;" parent="1" vertex="1">
          <mxGeometry x="80" y="80" width="320" height="40" as="geometry" />
        </mxCell>
        <mxCell id="ubl2wMWENlvHtBSMLndZ-366" value="&lt;font style=&quot;background-color: rgb(255, 255, 255);&quot;&gt;MatrÃ­cula: 2122082004&lt;/font&gt;" style="text;strokeColor=none;fillColor=none;html=1;fontSize=24;fontStyle=1;verticalAlign=middle;align=center;" parent="1" vertex="1">
          <mxGeometry x="80" y="120" width="250" height="40" as="geometry" />
        </mxCell>
        <mxCell id="onbUg4vN85bDNZT3oMW7-1" value="&lt;font style=&quot;font-size: 16px;&quot;&gt;M = {{a, b, c, d},{q0, q1, q2, q3, q4, q5, q6, q7, q8, q9, q10, q11,q12, q13, q14, q15, q16, q17, q18, q19, q20, q21, q22, q23, q24, q25, q26, q27, q28, q29, q30, q31, q32, q33, q34, q35, q36}, Î´, q0, {q25, q28, q32, q36}}&lt;/font&gt;" style="text;strokeColor=none;fillColor=none;html=1;fontSize=24;fontStyle=1;verticalAlign=middle;align=center;" parent="1" vertex="1">
          <mxGeometry x="80" y="10" width="1610.5" height="40" as="geometry" />
        </mxCell>
        <mxCell id="ClqnMnKsx_Ie9XqVXYmY-11" value="" style="endArrow=classic;html=1;rounded=0;entryX=0;entryY=0.5;entryDx=0;entryDy=0;" edge="1" parent="1">
          <mxGeometry width="50" height="50" relative="1" as="geometry">
            <mxPoint x="480" y="604.81" as="sourcePoint" />
            <mxPoint x="560" y="604.81" as="targetPoint" />
          </mxGeometry>
        </mxCell>
        <mxCell id="ClqnMnKsx_Ie9XqVXYmY-12" value="q6" style="ellipse;whiteSpace=wrap;html=1;aspect=fixed;" vertex="1" parent="1">
          <mxGeometry x="560" y="585" width="40" height="40" as="geometry" />
        </mxCell>
        <mxCell id="ClqnMnKsx_Ie9XqVXYmY-13" value="b" style="text;strokeColor=none;fillColor=none;html=1;fontSize=24;fontStyle=1;verticalAlign=middle;align=center;" vertex="1" parent="1">
          <mxGeometry x="510" y="575" width="20" height="20" as="geometry" />
        </mxCell>
        <mxCell id="ClqnMnKsx_Ie9XqVXYmY-17" value="" style="endArrow=classic;html=1;rounded=0;entryX=0;entryY=0.5;entryDx=0;entryDy=0;" edge="1" parent="1">
          <mxGeometry width="50" height="50" relative="1" as="geometry">
            <mxPoint x="480" y="524.81" as="sourcePoint" />
            <mxPoint x="560" y="524.81" as="targetPoint" />
          </mxGeometry>
        </mxCell>
        <mxCell id="ClqnMnKsx_Ie9XqVXYmY-18" value="q3" style="ellipse;whiteSpace=wrap;html=1;aspect=fixed;" vertex="1" parent="1">
          <mxGeometry x="560" y="505" width="40" height="40" as="geometry" />
        </mxCell>
        <mxCell id="ClqnMnKsx_Ie9XqVXYmY-19" value="b" style="text;strokeColor=none;fillColor=none;html=1;fontSize=24;fontStyle=1;verticalAlign=middle;align=center;" vertex="1" parent="1">
          <mxGeometry x="510" y="495" width="20" height="20" as="geometry" />
        </mxCell>
        <mxCell id="ClqnMnKsx_Ie9XqVXYmY-20" value="" style="endArrow=classic;html=1;rounded=0;entryX=0;entryY=0.5;entryDx=0;entryDy=0;" edge="1" parent="1">
          <mxGeometry width="50" height="50" relative="1" as="geometry">
            <mxPoint x="600" y="605" as="sourcePoint" />
            <mxPoint x="680" y="605" as="targetPoint" />
          </mxGeometry>
        </mxCell>
        <mxCell id="ClqnMnKsx_Ie9XqVXYmY-21" value="q13" style="ellipse;whiteSpace=wrap;html=1;aspect=fixed;fillColor=#ffe6cc;strokeColor=#d79b00;" vertex="1" parent="1">
          <mxGeometry x="680" y="585" width="40" height="40" as="geometry" />
        </mxCell>
        <mxCell id="ClqnMnKsx_Ie9XqVXYmY-22" value="c" style="text;strokeColor=none;fillColor=none;html=1;fontSize=24;fontStyle=1;verticalAlign=middle;align=center;" vertex="1" parent="1">
          <mxGeometry x="630" y="575" width="20" height="20" as="geometry" />
        </mxCell>
        <mxCell id="ClqnMnKsx_Ie9XqVXYmY-59" value="" style="endArrow=classic;html=1;rounded=0;entryX=0;entryY=0.5;entryDx=0;entryDy=0;" edge="1" parent="1" target="ClqnMnKsx_Ie9XqVXYmY-60">
          <mxGeometry width="50" height="50" relative="1" as="geometry">
            <mxPoint x="930.0000000000001" y="528" as="sourcePoint" />
            <mxPoint x="940.0000000000001" y="527.5799999999999" as="targetPoint" />
          </mxGeometry>
        </mxCell>
        <mxCell id="ClqnMnKsx_Ie9XqVXYmY-60" value="q12" style="ellipse;whiteSpace=wrap;html=1;aspect=fixed;" vertex="1" parent="1">
          <mxGeometry x="970.0000000000001" y="508" width="40" height="40" as="geometry" />
        </mxCell>
        <mxCell id="ClqnMnKsx_Ie9XqVXYmY-61" value="" style="endArrow=classic;html=1;rounded=0;entryX=0;entryY=0.5;entryDx=0;entryDy=0;" edge="1" parent="1">
          <mxGeometry width="50" height="50" relative="1" as="geometry">
            <mxPoint x="929.5000000000001" y="578" as="sourcePoint" />
            <mxPoint x="969.5" y="578" as="targetPoint" />
          </mxGeometry>
        </mxCell>
        <mxCell id="ClqnMnKsx_Ie9XqVXYmY-62" value="q18" style="ellipse;whiteSpace=wrap;html=1;aspect=fixed;" vertex="1" parent="1">
          <mxGeometry x="970.0000000000001" y="553" width="40" height="40" as="geometry" />
        </mxCell>
        <mxCell id="ClqnMnKsx_Ie9XqVXYmY-63" value="" style="endArrow=none;html=1;rounded=0;" edge="1" parent="1">
          <mxGeometry width="50" height="50" relative="1" as="geometry">
            <mxPoint x="930" y="578" as="sourcePoint" />
            <mxPoint x="930" y="483" as="targetPoint" />
          </mxGeometry>
        </mxCell>
        <mxCell id="ClqnMnKsx_Ie9XqVXYmY-64" value="d" style="text;strokeColor=none;fillColor=none;html=1;fontSize=24;fontStyle=1;verticalAlign=middle;align=center;" vertex="1" parent="1">
          <mxGeometry x="939.5" y="548" width="20" height="20" as="geometry" />
        </mxCell>
        <mxCell id="ClqnMnKsx_Ie9XqVXYmY-65" value="b" style="text;strokeColor=none;fillColor=none;html=1;fontSize=24;fontStyle=1;verticalAlign=middle;align=center;" vertex="1" parent="1">
          <mxGeometry x="939.5000000000001" y="498" width="20" height="20" as="geometry" />
        </mxCell>
        <mxCell id="ClqnMnKsx_Ie9XqVXYmY-66" value="" style="endArrow=classic;html=1;rounded=0;entryX=0;entryY=0.5;entryDx=0;entryDy=0;" edge="1" parent="1" target="ClqnMnKsx_Ie9XqVXYmY-67">
          <mxGeometry width="50" height="50" relative="1" as="geometry">
            <mxPoint x="1050" y="528" as="sourcePoint" />
            <mxPoint x="1060" y="527.5799999999999" as="targetPoint" />
          </mxGeometry>
        </mxCell>
        <mxCell id="ClqnMnKsx_Ie9XqVXYmY-67" value="q12" style="ellipse;whiteSpace=wrap;html=1;aspect=fixed;" vertex="1" parent="1">
          <mxGeometry x="1090" y="508" width="40" height="40" as="geometry" />
        </mxCell>
        <mxCell id="ClqnMnKsx_Ie9XqVXYmY-68" value="" style="endArrow=classic;html=1;rounded=0;entryX=0;entryY=0.5;entryDx=0;entryDy=0;" edge="1" parent="1">
          <mxGeometry width="50" height="50" relative="1" as="geometry">
            <mxPoint x="1049.5" y="578" as="sourcePoint" />
            <mxPoint x="1089.5" y="578" as="targetPoint" />
          </mxGeometry>
        </mxCell>
        <mxCell id="ClqnMnKsx_Ie9XqVXYmY-69" value="q16" style="ellipse;whiteSpace=wrap;html=1;aspect=fixed;" vertex="1" parent="1">
          <mxGeometry x="1090" y="553" width="40" height="40" as="geometry" />
        </mxCell>
        <mxCell id="ClqnMnKsx_Ie9XqVXYmY-70" value="" style="endArrow=none;html=1;rounded=0;" edge="1" parent="1">
          <mxGeometry width="50" height="50" relative="1" as="geometry">
            <mxPoint x="1050" y="578" as="sourcePoint" />
            <mxPoint x="1050" y="483" as="targetPoint" />
          </mxGeometry>
        </mxCell>
        <mxCell id="ClqnMnKsx_Ie9XqVXYmY-71" value="c" style="text;strokeColor=none;fillColor=none;html=1;fontSize=24;fontStyle=1;verticalAlign=middle;align=center;" vertex="1" parent="1">
          <mxGeometry x="1059.5" y="548" width="20" height="20" as="geometry" />
        </mxCell>
        <mxCell id="ClqnMnKsx_Ie9XqVXYmY-72" value="b" style="text;strokeColor=none;fillColor=none;html=1;fontSize=24;fontStyle=1;verticalAlign=middle;align=center;" vertex="1" parent="1">
          <mxGeometry x="1059.5" y="498" width="20" height="20" as="geometry" />
        </mxCell>
        <mxCell id="ClqnMnKsx_Ie9XqVXYmY-73" value="" style="endArrow=classic;html=1;rounded=0;entryX=0;entryY=0.5;entryDx=0;entryDy=0;" edge="1" parent="1" target="ClqnMnKsx_Ie9XqVXYmY-74">
          <mxGeometry width="50" height="50" relative="1" as="geometry">
            <mxPoint x="1170.75" y="528" as="sourcePoint" />
            <mxPoint x="1180.75" y="527.5799999999999" as="targetPoint" />
          </mxGeometry>
        </mxCell>
        <mxCell id="ClqnMnKsx_Ie9XqVXYmY-74" value="q15" style="ellipse;whiteSpace=wrap;html=1;aspect=fixed;" vertex="1" parent="1">
          <mxGeometry x="1210.75" y="508" width="40" height="40" as="geometry" />
        </mxCell>
        <mxCell id="ClqnMnKsx_Ie9XqVXYmY-75" value="" style="endArrow=classic;html=1;rounded=0;entryX=0;entryY=0.5;entryDx=0;entryDy=0;" edge="1" parent="1">
          <mxGeometry width="50" height="50" relative="1" as="geometry">
            <mxPoint x="1170.25" y="578" as="sourcePoint" />
            <mxPoint x="1210.25" y="578" as="targetPoint" />
          </mxGeometry>
        </mxCell>
        <mxCell id="ClqnMnKsx_Ie9XqVXYmY-76" value="q18" style="ellipse;whiteSpace=wrap;html=1;aspect=fixed;" vertex="1" parent="1">
          <mxGeometry x="1210.75" y="553" width="40" height="40" as="geometry" />
        </mxCell>
        <mxCell id="ClqnMnKsx_Ie9XqVXYmY-77" value="" style="endArrow=none;html=1;rounded=0;" edge="1" parent="1">
          <mxGeometry width="50" height="50" relative="1" as="geometry">
            <mxPoint x="1170.75" y="578" as="sourcePoint" />
            <mxPoint x="1170.75" y="483" as="targetPoint" />
          </mxGeometry>
        </mxCell>
        <mxCell id="ClqnMnKsx_Ie9XqVXYmY-78" value="d" style="text;strokeColor=none;fillColor=none;html=1;fontSize=24;fontStyle=1;verticalAlign=middle;align=center;" vertex="1" parent="1">
          <mxGeometry x="1180.25" y="548" width="20" height="20" as="geometry" />
        </mxCell>
        <mxCell id="ClqnMnKsx_Ie9XqVXYmY-79" value="c" style="text;strokeColor=none;fillColor=none;html=1;fontSize=24;fontStyle=1;verticalAlign=middle;align=center;" vertex="1" parent="1">
          <mxGeometry x="1180.25" y="498" width="20" height="20" as="geometry" />
        </mxCell>
        <mxCell id="ClqnMnKsx_Ie9XqVXYmY-125" value="" style="endArrow=classic;html=1;rounded=0;entryX=0;entryY=0.5;entryDx=0;entryDy=0;" edge="1" parent="1">
          <mxGeometry width="50" height="50" relative="1" as="geometry">
            <mxPoint x="829.5" y="717.81" as="sourcePoint" />
            <mxPoint x="909.5" y="717.81" as="targetPoint" />
          </mxGeometry>
        </mxCell>
        <mxCell id="ClqnMnKsx_Ie9XqVXYmY-126" value="q15" style="ellipse;whiteSpace=wrap;html=1;aspect=fixed;" vertex="1" parent="1">
          <mxGeometry x="909.5" y="698" width="40" height="40" as="geometry" />
        </mxCell>
        <mxCell id="ClqnMnKsx_Ie9XqVXYmY-127" value="" style="endArrow=classic;html=1;rounded=0;entryX=0;entryY=0.5;entryDx=0;entryDy=0;" edge="1" parent="1">
          <mxGeometry width="50" height="50" relative="1" as="geometry">
            <mxPoint x="949.5" y="717.81" as="sourcePoint" />
            <mxPoint x="1029.5" y="717.81" as="targetPoint" />
          </mxGeometry>
        </mxCell>
        <mxCell id="ClqnMnKsx_Ie9XqVXYmY-128" value="q16" style="ellipse;whiteSpace=wrap;html=1;aspect=fixed;" vertex="1" parent="1">
          <mxGeometry x="1029.5" y="698" width="40" height="40" as="geometry" />
        </mxCell>
        <mxCell id="ClqnMnKsx_Ie9XqVXYmY-129" value="" style="endArrow=classic;html=1;rounded=0;entryX=0;entryY=0.5;entryDx=0;entryDy=0;" edge="1" parent="1">
          <mxGeometry width="50" height="50" relative="1" as="geometry">
            <mxPoint x="1069.5" y="717.81" as="sourcePoint" />
            <mxPoint x="1149.5" y="717.81" as="targetPoint" />
          </mxGeometry>
        </mxCell>
        <mxCell id="ClqnMnKsx_Ie9XqVXYmY-130" value="q17" style="ellipse;whiteSpace=wrap;html=1;aspect=fixed;" vertex="1" parent="1">
          <mxGeometry x="1149.5" y="698" width="40" height="40" as="geometry" />
        </mxCell>
        <mxCell id="ClqnMnKsx_Ie9XqVXYmY-131" value="c" style="text;strokeColor=none;fillColor=none;html=1;fontSize=24;fontStyle=1;verticalAlign=middle;align=center;" vertex="1" parent="1">
          <mxGeometry x="859.5" y="688" width="20" height="20" as="geometry" />
        </mxCell>
        <mxCell id="ClqnMnKsx_Ie9XqVXYmY-132" value="c" style="text;strokeColor=none;fillColor=none;html=1;fontSize=24;fontStyle=1;verticalAlign=middle;align=center;" vertex="1" parent="1">
          <mxGeometry x="979.5" y="688" width="20" height="20" as="geometry" />
        </mxCell>
        <mxCell id="ClqnMnKsx_Ie9XqVXYmY-133" value="a" style="text;strokeColor=none;fillColor=none;html=1;fontSize=24;fontStyle=1;verticalAlign=middle;align=center;" vertex="1" parent="1">
          <mxGeometry x="1099.5" y="688" width="20" height="20" as="geometry" />
        </mxCell>
        <mxCell id="ClqnMnKsx_Ie9XqVXYmY-134" value="" style="endArrow=classic;html=1;rounded=0;entryX=0;entryY=0.5;entryDx=0;entryDy=0;" edge="1" parent="1">
          <mxGeometry width="50" height="50" relative="1" as="geometry">
            <mxPoint x="1189.5" y="717.81" as="sourcePoint" />
            <mxPoint x="1269.5" y="717.81" as="targetPoint" />
          </mxGeometry>
        </mxCell>
        <mxCell id="ClqnMnKsx_Ie9XqVXYmY-135" value="q33" style="ellipse;whiteSpace=wrap;html=1;aspect=fixed;fillColor=#ffe6cc;strokeColor=#d79b00;" vertex="1" parent="1">
          <mxGeometry x="1269.5" y="698" width="40" height="40" as="geometry" />
        </mxCell>
        <mxCell id="ClqnMnKsx_Ie9XqVXYmY-136" value="d" style="text;strokeColor=none;fillColor=none;html=1;fontSize=24;fontStyle=1;verticalAlign=middle;align=center;" vertex="1" parent="1">
          <mxGeometry x="1219.5" y="688" width="20" height="20" as="geometry" />
        </mxCell>
        <mxCell id="ClqnMnKsx_Ie9XqVXYmY-137" value="" style="endArrow=none;html=1;rounded=0;" edge="1" parent="1">
          <mxGeometry width="50" height="50" relative="1" as="geometry">
            <mxPoint x="929.71" y="698" as="sourcePoint" />
            <mxPoint x="929.5" y="638" as="targetPoint" />
          </mxGeometry>
        </mxCell>
        <mxCell id="ClqnMnKsx_Ie9XqVXYmY-138" value="" style="endArrow=classic;html=1;rounded=0;entryX=0;entryY=0.5;entryDx=0;entryDy=0;" edge="1" parent="1">
          <mxGeometry width="50" height="50" relative="1" as="geometry">
            <mxPoint x="929.5" y="637.4300000000001" as="sourcePoint" />
            <mxPoint x="969.5" y="637.4300000000001" as="targetPoint" />
          </mxGeometry>
        </mxCell>
        <mxCell id="ClqnMnKsx_Ie9XqVXYmY-139" value="q9" style="ellipse;whiteSpace=wrap;html=1;aspect=fixed;" vertex="1" parent="1">
          <mxGeometry x="969.5" y="618" width="40" height="40" as="geometry" />
        </mxCell>
        <mxCell id="ClqnMnKsx_Ie9XqVXYmY-140" value="" style="endArrow=none;html=1;rounded=0;" edge="1" parent="1">
          <mxGeometry width="50" height="50" relative="1" as="geometry">
            <mxPoint x="1050.21" y="698" as="sourcePoint" />
            <mxPoint x="1050" y="638" as="targetPoint" />
          </mxGeometry>
        </mxCell>
        <mxCell id="ClqnMnKsx_Ie9XqVXYmY-141" value="" style="endArrow=classic;html=1;rounded=0;entryX=0;entryY=0.5;entryDx=0;entryDy=0;" edge="1" parent="1">
          <mxGeometry width="50" height="50" relative="1" as="geometry">
            <mxPoint x="1050" y="637.4300000000001" as="sourcePoint" />
            <mxPoint x="1090" y="637.4300000000001" as="targetPoint" />
          </mxGeometry>
        </mxCell>
        <mxCell id="ClqnMnKsx_Ie9XqVXYmY-142" value="q12" style="ellipse;whiteSpace=wrap;html=1;aspect=fixed;" vertex="1" parent="1">
          <mxGeometry x="1090" y="618" width="40" height="40" as="geometry" />
        </mxCell>
        <mxCell id="ClqnMnKsx_Ie9XqVXYmY-143" value="" style="endArrow=none;html=1;rounded=0;" edge="1" parent="1">
          <mxGeometry width="50" height="50" relative="1" as="geometry">
            <mxPoint x="1169.71" y="698" as="sourcePoint" />
            <mxPoint x="1169.5" y="638" as="targetPoint" />
          </mxGeometry>
        </mxCell>
        <mxCell id="ClqnMnKsx_Ie9XqVXYmY-144" value="" style="endArrow=classic;html=1;rounded=0;entryX=0;entryY=0.5;entryDx=0;entryDy=0;" edge="1" parent="1">
          <mxGeometry width="50" height="50" relative="1" as="geometry">
            <mxPoint x="1169.5" y="637.4300000000001" as="sourcePoint" />
            <mxPoint x="1209.5" y="637.4300000000001" as="targetPoint" />
          </mxGeometry>
        </mxCell>
        <mxCell id="ClqnMnKsx_Ie9XqVXYmY-145" value="q10" style="ellipse;whiteSpace=wrap;html=1;aspect=fixed;" vertex="1" parent="1">
          <mxGeometry x="1209.5" y="618" width="40" height="40" as="geometry" />
        </mxCell>
        <mxCell id="ClqnMnKsx_Ie9XqVXYmY-146" value="" style="endArrow=classic;html=1;rounded=0;entryX=0;entryY=0.5;entryDx=0;entryDy=0;" edge="1" parent="1" target="ClqnMnKsx_Ie9XqVXYmY-147">
          <mxGeometry width="50" height="50" relative="1" as="geometry">
            <mxPoint x="929.5000000000001" y="783" as="sourcePoint" />
            <mxPoint x="939.5000000000001" y="782.5799999999999" as="targetPoint" />
          </mxGeometry>
        </mxCell>
        <mxCell id="ClqnMnKsx_Ie9XqVXYmY-147" value="q12" style="ellipse;whiteSpace=wrap;html=1;aspect=fixed;" vertex="1" parent="1">
          <mxGeometry x="969.5000000000001" y="763" width="40" height="40" as="geometry" />
        </mxCell>
        <mxCell id="ClqnMnKsx_Ie9XqVXYmY-148" value="" style="endArrow=classic;html=1;rounded=0;entryX=0;entryY=0.5;entryDx=0;entryDy=0;" edge="1" parent="1">
          <mxGeometry width="50" height="50" relative="1" as="geometry">
            <mxPoint x="929.0000000000001" y="833" as="sourcePoint" />
            <mxPoint x="969" y="833" as="targetPoint" />
          </mxGeometry>
        </mxCell>
        <mxCell id="ClqnMnKsx_Ie9XqVXYmY-149" value="q18" style="ellipse;whiteSpace=wrap;html=1;aspect=fixed;" vertex="1" parent="1">
          <mxGeometry x="969.5000000000001" y="808" width="40" height="40" as="geometry" />
        </mxCell>
        <mxCell id="ClqnMnKsx_Ie9XqVXYmY-150" value="" style="endArrow=none;html=1;rounded=0;" edge="1" parent="1">
          <mxGeometry width="50" height="50" relative="1" as="geometry">
            <mxPoint x="929.5" y="833" as="sourcePoint" />
            <mxPoint x="929.5" y="738" as="targetPoint" />
          </mxGeometry>
        </mxCell>
        <mxCell id="ClqnMnKsx_Ie9XqVXYmY-151" value="d" style="text;strokeColor=none;fillColor=none;html=1;fontSize=24;fontStyle=1;verticalAlign=middle;align=center;" vertex="1" parent="1">
          <mxGeometry x="939" y="803" width="20" height="20" as="geometry" />
        </mxCell>
        <mxCell id="ClqnMnKsx_Ie9XqVXYmY-152" value="b" style="text;strokeColor=none;fillColor=none;html=1;fontSize=24;fontStyle=1;verticalAlign=middle;align=center;" vertex="1" parent="1">
          <mxGeometry x="939.0000000000001" y="753" width="20" height="20" as="geometry" />
        </mxCell>
        <mxCell id="ClqnMnKsx_Ie9XqVXYmY-153" value="" style="endArrow=classic;html=1;rounded=0;entryX=0;entryY=0.5;entryDx=0;entryDy=0;" edge="1" parent="1" target="ClqnMnKsx_Ie9XqVXYmY-154">
          <mxGeometry width="50" height="50" relative="1" as="geometry">
            <mxPoint x="1049.5" y="783" as="sourcePoint" />
            <mxPoint x="1059.5" y="782.5799999999999" as="targetPoint" />
          </mxGeometry>
        </mxCell>
        <mxCell id="ClqnMnKsx_Ie9XqVXYmY-154" value="q16" style="ellipse;whiteSpace=wrap;html=1;aspect=fixed;" vertex="1" parent="1">
          <mxGeometry x="1089.5" y="763" width="40" height="40" as="geometry" />
        </mxCell>
        <mxCell id="ClqnMnKsx_Ie9XqVXYmY-155" value="" style="endArrow=classic;html=1;rounded=0;entryX=0;entryY=0.5;entryDx=0;entryDy=0;" edge="1" parent="1">
          <mxGeometry width="50" height="50" relative="1" as="geometry">
            <mxPoint x="1049" y="833" as="sourcePoint" />
            <mxPoint x="1089" y="833" as="targetPoint" />
          </mxGeometry>
        </mxCell>
        <mxCell id="ClqnMnKsx_Ie9XqVXYmY-156" value="q18" style="ellipse;whiteSpace=wrap;html=1;aspect=fixed;" vertex="1" parent="1">
          <mxGeometry x="1089.5" y="808" width="40" height="40" as="geometry" />
        </mxCell>
        <mxCell id="ClqnMnKsx_Ie9XqVXYmY-157" value="" style="endArrow=none;html=1;rounded=0;" edge="1" parent="1">
          <mxGeometry width="50" height="50" relative="1" as="geometry">
            <mxPoint x="1049.5" y="833" as="sourcePoint" />
            <mxPoint x="1049.5" y="738" as="targetPoint" />
          </mxGeometry>
        </mxCell>
        <mxCell id="ClqnMnKsx_Ie9XqVXYmY-158" value="d" style="text;strokeColor=none;fillColor=none;html=1;fontSize=24;fontStyle=1;verticalAlign=middle;align=center;" vertex="1" parent="1">
          <mxGeometry x="1059" y="803" width="20" height="20" as="geometry" />
        </mxCell>
        <mxCell id="ClqnMnKsx_Ie9XqVXYmY-159" value="c" style="text;strokeColor=none;fillColor=none;html=1;fontSize=24;fontStyle=1;verticalAlign=middle;align=center;" vertex="1" parent="1">
          <mxGeometry x="1059" y="753" width="20" height="20" as="geometry" />
        </mxCell>
        <mxCell id="ClqnMnKsx_Ie9XqVXYmY-160" value="" style="endArrow=classic;html=1;rounded=0;entryX=0;entryY=0.5;entryDx=0;entryDy=0;" edge="1" parent="1" target="ClqnMnKsx_Ie9XqVXYmY-161">
          <mxGeometry width="50" height="50" relative="1" as="geometry">
            <mxPoint x="1170.25" y="783" as="sourcePoint" />
            <mxPoint x="1180.25" y="782.5799999999999" as="targetPoint" />
          </mxGeometry>
        </mxCell>
        <mxCell id="ClqnMnKsx_Ie9XqVXYmY-161" value="q12" style="ellipse;whiteSpace=wrap;html=1;aspect=fixed;" vertex="1" parent="1">
          <mxGeometry x="1210.25" y="763" width="40" height="40" as="geometry" />
        </mxCell>
        <mxCell id="ClqnMnKsx_Ie9XqVXYmY-162" value="" style="endArrow=classic;html=1;rounded=0;entryX=0;entryY=0.5;entryDx=0;entryDy=0;" edge="1" parent="1">
          <mxGeometry width="50" height="50" relative="1" as="geometry">
            <mxPoint x="1169.75" y="833" as="sourcePoint" />
            <mxPoint x="1209.75" y="833" as="targetPoint" />
          </mxGeometry>
        </mxCell>
        <mxCell id="ClqnMnKsx_Ie9XqVXYmY-163" value="q15" style="ellipse;whiteSpace=wrap;html=1;aspect=fixed;" vertex="1" parent="1">
          <mxGeometry x="1210.25" y="808" width="40" height="40" as="geometry" />
        </mxCell>
        <mxCell id="ClqnMnKsx_Ie9XqVXYmY-164" value="" style="endArrow=none;html=1;rounded=0;" edge="1" parent="1">
          <mxGeometry width="50" height="50" relative="1" as="geometry">
            <mxPoint x="1170.25" y="833" as="sourcePoint" />
            <mxPoint x="1170.25" y="738" as="targetPoint" />
          </mxGeometry>
        </mxCell>
        <mxCell id="ClqnMnKsx_Ie9XqVXYmY-165" value="c" style="text;strokeColor=none;fillColor=none;html=1;fontSize=24;fontStyle=1;verticalAlign=middle;align=center;" vertex="1" parent="1">
          <mxGeometry x="1179.75" y="803" width="20" height="20" as="geometry" />
        </mxCell>
        <mxCell id="ClqnMnKsx_Ie9XqVXYmY-166" value="b" style="text;strokeColor=none;fillColor=none;html=1;fontSize=24;fontStyle=1;verticalAlign=middle;align=center;" vertex="1" parent="1">
          <mxGeometry x="1179.75" y="753" width="20" height="20" as="geometry" />
        </mxCell>
        <mxCell id="ClqnMnKsx_Ie9XqVXYmY-167" value="" style="endArrow=classic;html=1;rounded=0;entryX=0;entryY=0.5;entryDx=0;entryDy=0;" edge="1" parent="1" target="ClqnMnKsx_Ie9XqVXYmY-168">
          <mxGeometry width="50" height="50" relative="1" as="geometry">
            <mxPoint x="929.5" y="100" as="sourcePoint" />
            <mxPoint x="939.5" y="99.57999999999993" as="targetPoint" />
          </mxGeometry>
        </mxCell>
        <mxCell id="ClqnMnKsx_Ie9XqVXYmY-168" value="q12" style="ellipse;whiteSpace=wrap;html=1;aspect=fixed;" vertex="1" parent="1">
          <mxGeometry x="969.5" y="80" width="40" height="40" as="geometry" />
        </mxCell>
        <mxCell id="ClqnMnKsx_Ie9XqVXYmY-169" value="b" style="text;strokeColor=none;fillColor=none;html=1;fontSize=24;fontStyle=1;verticalAlign=middle;align=center;" vertex="1" parent="1">
          <mxGeometry x="939.5" y="70" width="20" height="20" as="geometry" />
        </mxCell>
        <mxCell id="ClqnMnKsx_Ie9XqVXYmY-170" value="" style="endArrow=none;html=1;rounded=0;" edge="1" parent="1">
          <mxGeometry width="50" height="50" relative="1" as="geometry">
            <mxPoint x="1049" y="303" as="sourcePoint" />
            <mxPoint x="1049.5" y="100" as="targetPoint" />
          </mxGeometry>
        </mxCell>
        <mxCell id="ClqnMnKsx_Ie9XqVXYmY-171" value="" style="endArrow=classic;html=1;rounded=0;entryX=0;entryY=0.5;entryDx=0;entryDy=0;" edge="1" parent="1" target="ClqnMnKsx_Ie9XqVXYmY-172">
          <mxGeometry width="50" height="50" relative="1" as="geometry">
            <mxPoint x="1049.5" y="163" as="sourcePoint" />
            <mxPoint x="1059.5" y="162.57999999999993" as="targetPoint" />
          </mxGeometry>
        </mxCell>
        <mxCell id="ClqnMnKsx_Ie9XqVXYmY-172" value="q15" style="ellipse;whiteSpace=wrap;html=1;aspect=fixed;" vertex="1" parent="1">
          <mxGeometry x="1089.5" y="143" width="40" height="40" as="geometry" />
        </mxCell>
        <mxCell id="ClqnMnKsx_Ie9XqVXYmY-173" value="" style="endArrow=classic;html=1;rounded=0;entryX=0;entryY=0.5;entryDx=0;entryDy=0;" edge="1" parent="1" target="ClqnMnKsx_Ie9XqVXYmY-174">
          <mxGeometry width="50" height="50" relative="1" as="geometry">
            <mxPoint x="1049.5" y="223" as="sourcePoint" />
            <mxPoint x="1059.5" y="222.57999999999993" as="targetPoint" />
          </mxGeometry>
        </mxCell>
        <mxCell id="ClqnMnKsx_Ie9XqVXYmY-174" value="q18" style="ellipse;whiteSpace=wrap;html=1;aspect=fixed;" vertex="1" parent="1">
          <mxGeometry x="1089.5" y="203" width="40" height="40" as="geometry" />
        </mxCell>
        <mxCell id="ClqnMnKsx_Ie9XqVXYmY-175" value="d" style="text;strokeColor=none;fillColor=none;html=1;fontSize=24;fontStyle=1;verticalAlign=middle;align=center;" vertex="1" parent="1">
          <mxGeometry x="1059.5" y="193" width="20" height="20" as="geometry" />
        </mxCell>
        <mxCell id="ClqnMnKsx_Ie9XqVXYmY-176" value="c" style="text;strokeColor=none;fillColor=none;html=1;fontSize=24;fontStyle=1;verticalAlign=middle;align=center;" vertex="1" parent="1">
          <mxGeometry x="1059.5" y="133" width="20" height="20" as="geometry" />
        </mxCell>
        <mxCell id="ClqnMnKsx_Ie9XqVXYmY-177" value="" style="endArrow=classic;html=1;rounded=0;entryX=0;entryY=0.5;entryDx=0;entryDy=0;" edge="1" parent="1" target="ClqnMnKsx_Ie9XqVXYmY-178">
          <mxGeometry width="50" height="50" relative="1" as="geometry">
            <mxPoint x="1049" y="100" as="sourcePoint" />
            <mxPoint x="1059" y="99.57999999999993" as="targetPoint" />
          </mxGeometry>
        </mxCell>
        <mxCell id="ClqnMnKsx_Ie9XqVXYmY-178" value="q10" style="ellipse;whiteSpace=wrap;html=1;aspect=fixed;" vertex="1" parent="1">
          <mxGeometry x="1089" y="80" width="40" height="40" as="geometry" />
        </mxCell>
        <mxCell id="ClqnMnKsx_Ie9XqVXYmY-179" value="a" style="text;strokeColor=none;fillColor=none;html=1;fontSize=24;fontStyle=1;verticalAlign=middle;align=center;" vertex="1" parent="1">
          <mxGeometry x="1059" y="70" width="20" height="20" as="geometry" />
        </mxCell>
        <mxCell id="ClqnMnKsx_Ie9XqVXYmY-180" value="" style="endArrow=none;html=1;rounded=0;" edge="1" parent="1">
          <mxGeometry width="50" height="50" relative="1" as="geometry">
            <mxPoint x="1170.25" y="303" as="sourcePoint" />
            <mxPoint x="1170.75" y="100" as="targetPoint" />
          </mxGeometry>
        </mxCell>
        <mxCell id="ClqnMnKsx_Ie9XqVXYmY-181" value="" style="endArrow=classic;html=1;rounded=0;entryX=0;entryY=0.5;entryDx=0;entryDy=0;" edge="1" parent="1" target="ClqnMnKsx_Ie9XqVXYmY-182">
          <mxGeometry width="50" height="50" relative="1" as="geometry">
            <mxPoint x="1170.75" y="163" as="sourcePoint" />
            <mxPoint x="1180.75" y="162.57999999999993" as="targetPoint" />
          </mxGeometry>
        </mxCell>
        <mxCell id="ClqnMnKsx_Ie9XqVXYmY-182" value="q12" style="ellipse;whiteSpace=wrap;html=1;aspect=fixed;" vertex="1" parent="1">
          <mxGeometry x="1210.75" y="143" width="40" height="40" as="geometry" />
        </mxCell>
        <mxCell id="ClqnMnKsx_Ie9XqVXYmY-183" value="" style="endArrow=classic;html=1;rounded=0;entryX=0;entryY=0.5;entryDx=0;entryDy=0;" edge="1" parent="1" target="ClqnMnKsx_Ie9XqVXYmY-184">
          <mxGeometry width="50" height="50" relative="1" as="geometry">
            <mxPoint x="1170.75" y="223" as="sourcePoint" />
            <mxPoint x="1180.75" y="222.57999999999993" as="targetPoint" />
          </mxGeometry>
        </mxCell>
        <mxCell id="ClqnMnKsx_Ie9XqVXYmY-184" value="q18" style="ellipse;whiteSpace=wrap;html=1;aspect=fixed;" vertex="1" parent="1">
          <mxGeometry x="1210.75" y="203" width="40" height="40" as="geometry" />
        </mxCell>
        <mxCell id="ClqnMnKsx_Ie9XqVXYmY-185" value="d" style="text;strokeColor=none;fillColor=none;html=1;fontSize=24;fontStyle=1;verticalAlign=middle;align=center;" vertex="1" parent="1">
          <mxGeometry x="1180.75" y="193" width="20" height="20" as="geometry" />
        </mxCell>
        <mxCell id="ClqnMnKsx_Ie9XqVXYmY-186" value="b" style="text;strokeColor=none;fillColor=none;html=1;fontSize=24;fontStyle=1;verticalAlign=middle;align=center;" vertex="1" parent="1">
          <mxGeometry x="1180.75" y="133" width="20" height="20" as="geometry" />
        </mxCell>
        <mxCell id="ClqnMnKsx_Ie9XqVXYmY-187" value="" style="endArrow=classic;html=1;rounded=0;entryX=0;entryY=0.5;entryDx=0;entryDy=0;" edge="1" parent="1" target="ClqnMnKsx_Ie9XqVXYmY-188">
          <mxGeometry width="50" height="50" relative="1" as="geometry">
            <mxPoint x="1170.25" y="100" as="sourcePoint" />
            <mxPoint x="1180.25" y="99.57999999999993" as="targetPoint" />
          </mxGeometry>
        </mxCell>
        <mxCell id="ClqnMnKsx_Ie9XqVXYmY-188" value="q9" style="ellipse;whiteSpace=wrap;html=1;aspect=fixed;" vertex="1" parent="1">
          <mxGeometry x="1210.25" y="80" width="40" height="40" as="geometry" />
        </mxCell>
        <mxCell id="ClqnMnKsx_Ie9XqVXYmY-189" value="a" style="text;strokeColor=none;fillColor=none;html=1;fontSize=24;fontStyle=1;verticalAlign=middle;align=center;" vertex="1" parent="1">
          <mxGeometry x="1180.25" y="70" width="20" height="20" as="geometry" />
        </mxCell>
        <mxCell id="ClqnMnKsx_Ie9XqVXYmY-190" value="" style="endArrow=classic;html=1;rounded=0;entryX=0;entryY=0.5;entryDx=0;entryDy=0;" edge="1" parent="1" target="ClqnMnKsx_Ie9XqVXYmY-191">
          <mxGeometry width="50" height="50" relative="1" as="geometry">
            <mxPoint x="929.5" y="1110" as="sourcePoint" />
            <mxPoint x="939.5" y="1109.58" as="targetPoint" />
          </mxGeometry>
        </mxCell>
        <mxCell id="ClqnMnKsx_Ie9XqVXYmY-191" value="q12" style="ellipse;whiteSpace=wrap;html=1;aspect=fixed;" vertex="1" parent="1">
          <mxGeometry x="969.5" y="1090" width="40" height="40" as="geometry" />
        </mxCell>
        <mxCell id="ClqnMnKsx_Ie9XqVXYmY-192" value="b" style="text;strokeColor=none;fillColor=none;html=1;fontSize=24;fontStyle=1;verticalAlign=middle;align=center;" vertex="1" parent="1">
          <mxGeometry x="939.5" y="1080" width="20" height="20" as="geometry" />
        </mxCell>
        <mxCell id="ClqnMnKsx_Ie9XqVXYmY-193" value="" style="endArrow=classic;html=1;rounded=0;entryX=0;entryY=0.5;entryDx=0;entryDy=0;" edge="1" parent="1" target="ClqnMnKsx_Ie9XqVXYmY-194">
          <mxGeometry width="50" height="50" relative="1" as="geometry">
            <mxPoint x="1050.75" y="988" as="sourcePoint" />
            <mxPoint x="1060.75" y="987.5799999999999" as="targetPoint" />
          </mxGeometry>
        </mxCell>
        <mxCell id="ClqnMnKsx_Ie9XqVXYmY-194" value="q18" style="ellipse;whiteSpace=wrap;html=1;aspect=fixed;" vertex="1" parent="1">
          <mxGeometry x="1090.75" y="968" width="40" height="40" as="geometry" />
        </mxCell>
        <mxCell id="ClqnMnKsx_Ie9XqVXYmY-195" value="" style="endArrow=classic;html=1;rounded=0;entryX=0;entryY=0.5;entryDx=0;entryDy=0;" edge="1" parent="1" target="ClqnMnKsx_Ie9XqVXYmY-196">
          <mxGeometry width="50" height="50" relative="1" as="geometry">
            <mxPoint x="1050.75" y="1048" as="sourcePoint" />
            <mxPoint x="1060.75" y="1047.58" as="targetPoint" />
          </mxGeometry>
        </mxCell>
        <mxCell id="ClqnMnKsx_Ie9XqVXYmY-196" value="q12" style="ellipse;whiteSpace=wrap;html=1;aspect=fixed;" vertex="1" parent="1">
          <mxGeometry x="1090.75" y="1028" width="40" height="40" as="geometry" />
        </mxCell>
        <mxCell id="ClqnMnKsx_Ie9XqVXYmY-197" value="" style="endArrow=none;html=1;rounded=0;" edge="1" parent="1">
          <mxGeometry width="50" height="50" relative="1" as="geometry">
            <mxPoint x="1050.75" y="1110" as="sourcePoint" />
            <mxPoint x="1050.33" y="908" as="targetPoint" />
          </mxGeometry>
        </mxCell>
        <mxCell id="ClqnMnKsx_Ie9XqVXYmY-198" value="d" style="text;strokeColor=none;fillColor=none;html=1;fontSize=24;fontStyle=1;verticalAlign=middle;align=center;" vertex="1" parent="1">
          <mxGeometry x="1060.75" y="958" width="20" height="20" as="geometry" />
        </mxCell>
        <mxCell id="ClqnMnKsx_Ie9XqVXYmY-199" value="b" style="text;strokeColor=none;fillColor=none;html=1;fontSize=24;fontStyle=1;verticalAlign=middle;align=center;" vertex="1" parent="1">
          <mxGeometry x="1060.75" y="1018" width="20" height="20" as="geometry" />
        </mxCell>
        <mxCell id="ClqnMnKsx_Ie9XqVXYmY-200" value="" style="endArrow=classic;html=1;rounded=0;entryX=0;entryY=0.5;entryDx=0;entryDy=0;" edge="1" parent="1" target="ClqnMnKsx_Ie9XqVXYmY-201">
          <mxGeometry width="50" height="50" relative="1" as="geometry">
            <mxPoint x="1050.25" y="1110" as="sourcePoint" />
            <mxPoint x="1060.25" y="1109.58" as="targetPoint" />
          </mxGeometry>
        </mxCell>
        <mxCell id="ClqnMnKsx_Ie9XqVXYmY-201" value="q10" style="ellipse;whiteSpace=wrap;html=1;aspect=fixed;" vertex="1" parent="1">
          <mxGeometry x="1090.25" y="1090" width="40" height="40" as="geometry" />
        </mxCell>
        <mxCell id="ClqnMnKsx_Ie9XqVXYmY-202" value="a" style="text;strokeColor=none;fillColor=none;html=1;fontSize=24;fontStyle=1;verticalAlign=middle;align=center;" vertex="1" parent="1">
          <mxGeometry x="1060.25" y="1080" width="20" height="20" as="geometry" />
        </mxCell>
        <mxCell id="ClqnMnKsx_Ie9XqVXYmY-203" value="" style="endArrow=classic;html=1;rounded=0;entryX=0;entryY=0.5;entryDx=0;entryDy=0;" edge="1" parent="1" target="ClqnMnKsx_Ie9XqVXYmY-204">
          <mxGeometry width="50" height="50" relative="1" as="geometry">
            <mxPoint x="1170.75" y="988" as="sourcePoint" />
            <mxPoint x="1180.75" y="987.5799999999999" as="targetPoint" />
          </mxGeometry>
        </mxCell>
        <mxCell id="ClqnMnKsx_Ie9XqVXYmY-204" value="q18" style="ellipse;whiteSpace=wrap;html=1;aspect=fixed;" vertex="1" parent="1">
          <mxGeometry x="1210.75" y="968" width="40" height="40" as="geometry" />
        </mxCell>
        <mxCell id="ClqnMnKsx_Ie9XqVXYmY-205" value="" style="endArrow=classic;html=1;rounded=0;entryX=0;entryY=0.5;entryDx=0;entryDy=0;" edge="1" parent="1" target="ClqnMnKsx_Ie9XqVXYmY-206">
          <mxGeometry width="50" height="50" relative="1" as="geometry">
            <mxPoint x="1170.75" y="1048" as="sourcePoint" />
            <mxPoint x="1180.75" y="1047.58" as="targetPoint" />
          </mxGeometry>
        </mxCell>
        <mxCell id="ClqnMnKsx_Ie9XqVXYmY-206" value="q16" style="ellipse;whiteSpace=wrap;html=1;aspect=fixed;" vertex="1" parent="1">
          <mxGeometry x="1210.75" y="1028" width="40" height="40" as="geometry" />
        </mxCell>
        <mxCell id="ClqnMnKsx_Ie9XqVXYmY-207" value="" style="endArrow=none;html=1;rounded=0;" edge="1" parent="1">
          <mxGeometry width="50" height="50" relative="1" as="geometry">
            <mxPoint x="1170.75" y="1110" as="sourcePoint" />
            <mxPoint x="1170.33" y="908" as="targetPoint" />
          </mxGeometry>
        </mxCell>
        <mxCell id="ClqnMnKsx_Ie9XqVXYmY-208" value="d" style="text;strokeColor=none;fillColor=none;html=1;fontSize=24;fontStyle=1;verticalAlign=middle;align=center;" vertex="1" parent="1">
          <mxGeometry x="1180.75" y="958" width="20" height="20" as="geometry" />
        </mxCell>
        <mxCell id="ClqnMnKsx_Ie9XqVXYmY-209" value="c" style="text;strokeColor=none;fillColor=none;html=1;fontSize=24;fontStyle=1;verticalAlign=middle;align=center;" vertex="1" parent="1">
          <mxGeometry x="1180.75" y="1018" width="20" height="20" as="geometry" />
        </mxCell>
        <mxCell id="ClqnMnKsx_Ie9XqVXYmY-210" value="" style="endArrow=classic;html=1;rounded=0;entryX=0;entryY=0.5;entryDx=0;entryDy=0;" edge="1" parent="1" target="ClqnMnKsx_Ie9XqVXYmY-211">
          <mxGeometry width="50" height="50" relative="1" as="geometry">
            <mxPoint x="1170.25" y="1110" as="sourcePoint" />
            <mxPoint x="1180.25" y="1109.58" as="targetPoint" />
          </mxGeometry>
        </mxCell>
        <mxCell id="ClqnMnKsx_Ie9XqVXYmY-211" value="q9" style="ellipse;whiteSpace=wrap;html=1;aspect=fixed;" vertex="1" parent="1">
          <mxGeometry x="1210.25" y="1090" width="40" height="40" as="geometry" />
        </mxCell>
        <mxCell id="ClqnMnKsx_Ie9XqVXYmY-212" value="a" style="text;strokeColor=none;fillColor=none;html=1;fontSize=24;fontStyle=1;verticalAlign=middle;align=center;" vertex="1" parent="1">
          <mxGeometry x="1180.25" y="1080" width="20" height="20" as="geometry" />
        </mxCell>
        <mxCell id="ClqnMnKsx_Ie9XqVXYmY-214" value="a" style="text;strokeColor=none;fillColor=none;html=1;fontSize=24;fontStyle=1;verticalAlign=middle;align=center;" vertex="1" parent="1">
          <mxGeometry x="939" y="610" width="20" height="20" as="geometry" />
        </mxCell>
        <mxCell id="ClqnMnKsx_Ie9XqVXYmY-215" value="b" style="text;strokeColor=none;fillColor=none;html=1;fontSize=24;fontStyle=1;verticalAlign=middle;align=center;" vertex="1" parent="1">
          <mxGeometry x="1060.75" y="610" width="20" height="20" as="geometry" />
        </mxCell>
        <mxCell id="ClqnMnKsx_Ie9XqVXYmY-216" value="a" style="text;strokeColor=none;fillColor=none;html=1;fontSize=24;fontStyle=1;verticalAlign=middle;align=center;" vertex="1" parent="1">
          <mxGeometry x="1179.75" y="610" width="20" height="20" as="geometry" />
        </mxCell>
        <mxCell id="ClqnMnKsx_Ie9XqVXYmY-402" style="edgeStyle=orthogonalEdgeStyle;rounded=0;orthogonalLoop=1;jettySize=auto;html=1;exitX=0.5;exitY=0;exitDx=0;exitDy=0;entryX=0;entryY=0.5;entryDx=0;entryDy=0;" edge="1" parent="1" source="ClqnMnKsx_Ie9XqVXYmY-218" target="ClqnMnKsx_Ie9XqVXYmY-401">
          <mxGeometry relative="1" as="geometry" />
        </mxCell>
        <mxCell id="ClqnMnKsx_Ie9XqVXYmY-218" value="q21" style="ellipse;whiteSpace=wrap;html=1;aspect=fixed;" vertex="1" parent="1">
          <mxGeometry x="1280" y="585" width="40" height="40" as="geometry" />
        </mxCell>
        <mxCell id="ClqnMnKsx_Ie9XqVXYmY-219" value="" style="endArrow=none;html=1;rounded=0;exitX=1;exitY=0.5;exitDx=0;exitDy=0;" edge="1" parent="1" source="ClqnMnKsx_Ie9XqVXYmY-218">
          <mxGeometry width="50" height="50" relative="1" as="geometry">
            <mxPoint x="1340" y="655" as="sourcePoint" />
            <mxPoint x="1360" y="605" as="targetPoint" />
          </mxGeometry>
        </mxCell>
        <mxCell id="ClqnMnKsx_Ie9XqVXYmY-220" value="" style="endArrow=none;html=1;rounded=0;" edge="1" parent="1">
          <mxGeometry width="50" height="50" relative="1" as="geometry">
            <mxPoint x="1360" y="888" as="sourcePoint" />
            <mxPoint x="1360" y="463" as="targetPoint" />
          </mxGeometry>
        </mxCell>
        <mxCell id="ClqnMnKsx_Ie9XqVXYmY-223" value="" style="endArrow=classic;html=1;rounded=0;entryX=0;entryY=0.5;entryDx=0;entryDy=0;" edge="1" parent="1">
          <mxGeometry width="50" height="50" relative="1" as="geometry">
            <mxPoint x="1360" y="462.80999999999995" as="sourcePoint" />
            <mxPoint x="1440" y="462.80999999999995" as="targetPoint" />
          </mxGeometry>
        </mxCell>
        <mxCell id="ClqnMnKsx_Ie9XqVXYmY-224" value="" style="endArrow=classic;html=1;rounded=0;entryX=0;entryY=0.5;entryDx=0;entryDy=0;" edge="1" parent="1">
          <mxGeometry width="50" height="50" relative="1" as="geometry">
            <mxPoint x="1360" y="888" as="sourcePoint" />
            <mxPoint x="1440" y="888" as="targetPoint" />
          </mxGeometry>
        </mxCell>
        <mxCell id="ClqnMnKsx_Ie9XqVXYmY-225" value="q23" style="ellipse;whiteSpace=wrap;html=1;aspect=fixed;" vertex="1" parent="1">
          <mxGeometry x="1440" y="303" width="40" height="40" as="geometry" />
        </mxCell>
        <mxCell id="ClqnMnKsx_Ie9XqVXYmY-226" value="q22" style="ellipse;whiteSpace=wrap;html=1;aspect=fixed;" vertex="1" parent="1">
          <mxGeometry x="1440" y="443" width="40" height="40" as="geometry" />
        </mxCell>
        <mxCell id="ClqnMnKsx_Ie9XqVXYmY-227" value="q33" style="ellipse;whiteSpace=wrap;html=1;aspect=fixed;" vertex="1" parent="1">
          <mxGeometry x="1440" y="868" width="40" height="40" as="geometry" />
        </mxCell>
        <mxCell id="ClqnMnKsx_Ie9XqVXYmY-228" value="" style="endArrow=classic;html=1;rounded=0;entryX=0;entryY=0.5;entryDx=0;entryDy=0;" edge="1" parent="1">
          <mxGeometry width="50" height="50" relative="1" as="geometry">
            <mxPoint x="1480" y="323" as="sourcePoint" />
            <mxPoint x="1560" y="323" as="targetPoint" />
          </mxGeometry>
        </mxCell>
        <mxCell id="ClqnMnKsx_Ie9XqVXYmY-229" value="" style="endArrow=classic;html=1;rounded=0;entryX=0;entryY=0.5;entryDx=0;entryDy=0;" edge="1" parent="1">
          <mxGeometry width="50" height="50" relative="1" as="geometry">
            <mxPoint x="1480" y="462.80999999999995" as="sourcePoint" />
            <mxPoint x="1560" y="462.80999999999995" as="targetPoint" />
          </mxGeometry>
        </mxCell>
        <mxCell id="ClqnMnKsx_Ie9XqVXYmY-230" value="" style="endArrow=classic;html=1;rounded=0;entryX=0;entryY=0.5;entryDx=0;entryDy=0;" edge="1" parent="1">
          <mxGeometry width="50" height="50" relative="1" as="geometry">
            <mxPoint x="1480" y="888" as="sourcePoint" />
            <mxPoint x="1560" y="888" as="targetPoint" />
          </mxGeometry>
        </mxCell>
        <mxCell id="ClqnMnKsx_Ie9XqVXYmY-231" value="q24" style="ellipse;whiteSpace=wrap;html=1;aspect=fixed;" vertex="1" parent="1">
          <mxGeometry x="1560" y="303" width="40" height="40" as="geometry" />
        </mxCell>
        <mxCell id="ClqnMnKsx_Ie9XqVXYmY-232" value="q26" style="ellipse;whiteSpace=wrap;html=1;aspect=fixed;" vertex="1" parent="1">
          <mxGeometry x="1560" y="443" width="40" height="40" as="geometry" />
        </mxCell>
        <mxCell id="ClqnMnKsx_Ie9XqVXYmY-233" value="q34" style="ellipse;whiteSpace=wrap;html=1;aspect=fixed;" vertex="1" parent="1">
          <mxGeometry x="1560" y="868" width="40" height="40" as="geometry" />
        </mxCell>
        <mxCell id="ClqnMnKsx_Ie9XqVXYmY-234" value="" style="endArrow=classic;html=1;rounded=0;entryX=0;entryY=0.5;entryDx=0;entryDy=0;" edge="1" parent="1">
          <mxGeometry width="50" height="50" relative="1" as="geometry">
            <mxPoint x="1600" y="323" as="sourcePoint" />
            <mxPoint x="1680" y="323" as="targetPoint" />
          </mxGeometry>
        </mxCell>
        <mxCell id="ClqnMnKsx_Ie9XqVXYmY-235" value="" style="endArrow=classic;html=1;rounded=0;entryX=0;entryY=0.5;entryDx=0;entryDy=0;" edge="1" parent="1">
          <mxGeometry width="50" height="50" relative="1" as="geometry">
            <mxPoint x="1600" y="462.80999999999995" as="sourcePoint" />
            <mxPoint x="1680" y="462.80999999999995" as="targetPoint" />
          </mxGeometry>
        </mxCell>
        <mxCell id="ClqnMnKsx_Ie9XqVXYmY-236" value="" style="endArrow=classic;html=1;rounded=0;entryX=0;entryY=0.5;entryDx=0;entryDy=0;" edge="1" parent="1">
          <mxGeometry width="50" height="50" relative="1" as="geometry">
            <mxPoint x="1600" y="888" as="sourcePoint" />
            <mxPoint x="1680" y="888" as="targetPoint" />
          </mxGeometry>
        </mxCell>
        <mxCell id="ClqnMnKsx_Ie9XqVXYmY-237" value="q25" style="ellipse;whiteSpace=wrap;html=1;aspect=fixed;fillColor=#b1ddf0;strokeColor=#10739e;" vertex="1" parent="1">
          <mxGeometry x="1680" y="303" width="40" height="40" as="geometry" />
        </mxCell>
        <mxCell id="ClqnMnKsx_Ie9XqVXYmY-238" value="q27" style="ellipse;whiteSpace=wrap;html=1;aspect=fixed;" vertex="1" parent="1">
          <mxGeometry x="1680" y="443" width="40" height="40" as="geometry" />
        </mxCell>
        <mxCell id="ClqnMnKsx_Ie9XqVXYmY-239" value="q35" style="ellipse;whiteSpace=wrap;html=1;aspect=fixed;" vertex="1" parent="1">
          <mxGeometry x="1680" y="868" width="40" height="40" as="geometry" />
        </mxCell>
        <mxCell id="ClqnMnKsx_Ie9XqVXYmY-240" value="d" style="text;strokeColor=none;fillColor=none;html=1;fontSize=24;fontStyle=1;verticalAlign=middle;align=center;" vertex="1" parent="1">
          <mxGeometry x="1510" y="293" width="20" height="20" as="geometry" />
        </mxCell>
        <mxCell id="ClqnMnKsx_Ie9XqVXYmY-242" value="c" style="text;strokeColor=none;fillColor=none;html=1;fontSize=24;fontStyle=1;verticalAlign=middle;align=center;" vertex="1" parent="1">
          <mxGeometry x="1310" y="563" width="20" height="20" as="geometry" />
        </mxCell>
        <mxCell id="ClqnMnKsx_Ie9XqVXYmY-243" value="d" style="text;strokeColor=none;fillColor=none;html=1;fontSize=24;fontStyle=1;verticalAlign=middle;align=center;" vertex="1" parent="1">
          <mxGeometry x="1390" y="858" width="20" height="20" as="geometry" />
        </mxCell>
        <mxCell id="ClqnMnKsx_Ie9XqVXYmY-244" value="c" style="text;strokeColor=none;fillColor=none;html=1;fontSize=24;fontStyle=1;verticalAlign=middle;align=center;" vertex="1" parent="1">
          <mxGeometry x="1510" y="433" width="20" height="20" as="geometry" />
        </mxCell>
        <mxCell id="ClqnMnKsx_Ie9XqVXYmY-245" value="a" style="text;strokeColor=none;fillColor=none;html=1;fontSize=24;fontStyle=1;verticalAlign=middle;align=center;" vertex="1" parent="1">
          <mxGeometry x="1630" y="293" width="20" height="20" as="geometry" />
        </mxCell>
        <mxCell id="ClqnMnKsx_Ie9XqVXYmY-246" value="b" style="text;strokeColor=none;fillColor=none;html=1;fontSize=24;fontStyle=1;verticalAlign=middle;align=center;" vertex="1" parent="1">
          <mxGeometry x="1630" y="433" width="20" height="20" as="geometry" />
        </mxCell>
        <mxCell id="ClqnMnKsx_Ie9XqVXYmY-247" value="d" style="text;strokeColor=none;fillColor=none;html=1;fontSize=24;fontStyle=1;verticalAlign=middle;align=center;" vertex="1" parent="1">
          <mxGeometry x="1510" y="858" width="20" height="20" as="geometry" />
        </mxCell>
        <mxCell id="ClqnMnKsx_Ie9XqVXYmY-248" value="a" style="text;strokeColor=none;fillColor=none;html=1;fontSize=24;fontStyle=1;verticalAlign=middle;align=center;" vertex="1" parent="1">
          <mxGeometry x="1630" y="858" width="20" height="20" as="geometry" />
        </mxCell>
        <mxCell id="ClqnMnKsx_Ie9XqVXYmY-250" value="" style="endArrow=classic;html=1;rounded=0;entryX=0;entryY=0.5;entryDx=0;entryDy=0;" edge="1" parent="1">
          <mxGeometry width="50" height="50" relative="1" as="geometry">
            <mxPoint x="1720" y="462.80999999999995" as="sourcePoint" />
            <mxPoint x="1800" y="462.80999999999995" as="targetPoint" />
          </mxGeometry>
        </mxCell>
        <mxCell id="ClqnMnKsx_Ie9XqVXYmY-251" value="" style="endArrow=classic;html=1;rounded=0;entryX=0;entryY=0.5;entryDx=0;entryDy=0;" edge="1" parent="1">
          <mxGeometry width="50" height="50" relative="1" as="geometry">
            <mxPoint x="1720" y="888" as="sourcePoint" />
            <mxPoint x="1800" y="888" as="targetPoint" />
          </mxGeometry>
        </mxCell>
        <mxCell id="ClqnMnKsx_Ie9XqVXYmY-253" value="q28" style="ellipse;whiteSpace=wrap;html=1;aspect=fixed;fillColor=#b1ddf0;strokeColor=#10739e;" vertex="1" parent="1">
          <mxGeometry x="1800" y="443" width="40" height="40" as="geometry" />
        </mxCell>
        <mxCell id="ClqnMnKsx_Ie9XqVXYmY-254" value="q36" style="ellipse;whiteSpace=wrap;html=1;aspect=fixed;fillColor=#b1ddf0;strokeColor=#10739e;" vertex="1" parent="1">
          <mxGeometry x="1800" y="868" width="40" height="40" as="geometry" />
        </mxCell>
        <mxCell id="ClqnMnKsx_Ie9XqVXYmY-256" value="d" style="text;strokeColor=none;fillColor=none;html=1;fontSize=24;fontStyle=1;verticalAlign=middle;align=center;" vertex="1" parent="1">
          <mxGeometry x="1750" y="433" width="20" height="20" as="geometry" />
        </mxCell>
        <mxCell id="ClqnMnKsx_Ie9XqVXYmY-257" value="b" style="text;strokeColor=none;fillColor=none;html=1;fontSize=24;fontStyle=1;verticalAlign=middle;align=center;" vertex="1" parent="1">
          <mxGeometry x="1750" y="858" width="20" height="20" as="geometry" />
        </mxCell>
        <mxCell id="ClqnMnKsx_Ie9XqVXYmY-258" value="" style="endArrow=none;html=1;rounded=0;" edge="1" parent="1">
          <mxGeometry width="50" height="50" relative="1" as="geometry">
            <mxPoint x="1459.5" y="303" as="sourcePoint" />
            <mxPoint x="1460" y="100" as="targetPoint" />
          </mxGeometry>
        </mxCell>
        <mxCell id="ClqnMnKsx_Ie9XqVXYmY-259" value="" style="endArrow=classic;html=1;rounded=0;entryX=0;entryY=0.5;entryDx=0;entryDy=0;" edge="1" parent="1" target="ClqnMnKsx_Ie9XqVXYmY-260">
          <mxGeometry width="50" height="50" relative="1" as="geometry">
            <mxPoint x="1460" y="163" as="sourcePoint" />
            <mxPoint x="1470" y="162.57999999999993" as="targetPoint" />
          </mxGeometry>
        </mxCell>
        <mxCell id="ClqnMnKsx_Ie9XqVXYmY-260" value="q29" style="ellipse;whiteSpace=wrap;html=1;aspect=fixed;" vertex="1" parent="1">
          <mxGeometry x="1500" y="143" width="40" height="40" as="geometry" />
        </mxCell>
        <mxCell id="ClqnMnKsx_Ie9XqVXYmY-261" value="" style="endArrow=classic;html=1;rounded=0;entryX=0;entryY=0.5;entryDx=0;entryDy=0;" edge="1" parent="1" target="ClqnMnKsx_Ie9XqVXYmY-262">
          <mxGeometry width="50" height="50" relative="1" as="geometry">
            <mxPoint x="1460" y="223" as="sourcePoint" />
            <mxPoint x="1470" y="222.57999999999993" as="targetPoint" />
          </mxGeometry>
        </mxCell>
        <mxCell id="ClqnMnKsx_Ie9XqVXYmY-262" value="q26" style="ellipse;whiteSpace=wrap;html=1;aspect=fixed;" vertex="1" parent="1">
          <mxGeometry x="1500" y="203" width="40" height="40" as="geometry" />
        </mxCell>
        <mxCell id="ClqnMnKsx_Ie9XqVXYmY-263" value="" style="endArrow=classic;html=1;rounded=0;entryX=0;entryY=0.5;entryDx=0;entryDy=0;" edge="1" parent="1" target="ClqnMnKsx_Ie9XqVXYmY-264">
          <mxGeometry width="50" height="50" relative="1" as="geometry">
            <mxPoint x="1460" y="988" as="sourcePoint" />
            <mxPoint x="1470" y="987.5799999999999" as="targetPoint" />
          </mxGeometry>
        </mxCell>
        <mxCell id="ClqnMnKsx_Ie9XqVXYmY-264" value="q21" style="ellipse;whiteSpace=wrap;html=1;aspect=fixed;" vertex="1" parent="1">
          <mxGeometry x="1500" y="968" width="40" height="40" as="geometry" />
        </mxCell>
        <mxCell id="ClqnMnKsx_Ie9XqVXYmY-265" value="" style="endArrow=classic;html=1;rounded=0;entryX=0;entryY=0.5;entryDx=0;entryDy=0;" edge="1" parent="1" target="ClqnMnKsx_Ie9XqVXYmY-266">
          <mxGeometry width="50" height="50" relative="1" as="geometry">
            <mxPoint x="1460" y="1048" as="sourcePoint" />
            <mxPoint x="1470" y="1047.58" as="targetPoint" />
          </mxGeometry>
        </mxCell>
        <mxCell id="ClqnMnKsx_Ie9XqVXYmY-266" value="q29" style="ellipse;whiteSpace=wrap;html=1;aspect=fixed;" vertex="1" parent="1">
          <mxGeometry x="1500" y="1028" width="40" height="40" as="geometry" />
        </mxCell>
        <mxCell id="ClqnMnKsx_Ie9XqVXYmY-267" value="" style="endArrow=none;html=1;rounded=0;" edge="1" parent="1">
          <mxGeometry width="50" height="50" relative="1" as="geometry">
            <mxPoint x="1460" y="1110" as="sourcePoint" />
            <mxPoint x="1459.58" y="908" as="targetPoint" />
          </mxGeometry>
        </mxCell>
        <mxCell id="ClqnMnKsx_Ie9XqVXYmY-268" value="" style="endArrow=none;html=1;rounded=0;" edge="1" parent="1">
          <mxGeometry width="50" height="50" relative="1" as="geometry">
            <mxPoint x="1460.21" y="443" as="sourcePoint" />
            <mxPoint x="1460" y="383" as="targetPoint" />
          </mxGeometry>
        </mxCell>
        <mxCell id="ClqnMnKsx_Ie9XqVXYmY-269" value="" style="endArrow=classic;html=1;rounded=0;entryX=0.5;entryY=1;entryDx=0;entryDy=0;" edge="1" parent="1" target="ClqnMnKsx_Ie9XqVXYmY-225">
          <mxGeometry width="50" height="50" relative="1" as="geometry">
            <mxPoint x="1460" y="382.43000000000006" as="sourcePoint" />
            <mxPoint x="1500" y="382.43000000000006" as="targetPoint" />
          </mxGeometry>
        </mxCell>
        <mxCell id="ClqnMnKsx_Ie9XqVXYmY-271" value="" style="endArrow=none;html=1;rounded=0;" edge="1" parent="1">
          <mxGeometry width="50" height="50" relative="1" as="geometry">
            <mxPoint x="1580.71" y="443" as="sourcePoint" />
            <mxPoint x="1580.5" y="383" as="targetPoint" />
          </mxGeometry>
        </mxCell>
        <mxCell id="ClqnMnKsx_Ie9XqVXYmY-272" value="" style="endArrow=classic;html=1;rounded=0;entryX=0;entryY=0.5;entryDx=0;entryDy=0;" edge="1" parent="1">
          <mxGeometry width="50" height="50" relative="1" as="geometry">
            <mxPoint x="1580.5" y="382.43000000000006" as="sourcePoint" />
            <mxPoint x="1620.5" y="382.43000000000006" as="targetPoint" />
          </mxGeometry>
        </mxCell>
        <mxCell id="ClqnMnKsx_Ie9XqVXYmY-273" value="q22" style="ellipse;whiteSpace=wrap;html=1;aspect=fixed;" vertex="1" parent="1">
          <mxGeometry x="1620.5" y="363" width="40" height="40" as="geometry" />
        </mxCell>
        <mxCell id="ClqnMnKsx_Ie9XqVXYmY-274" value="" style="endArrow=none;html=1;rounded=0;" edge="1" parent="1">
          <mxGeometry width="50" height="50" relative="1" as="geometry">
            <mxPoint x="1700.21" y="443" as="sourcePoint" />
            <mxPoint x="1700" y="383" as="targetPoint" />
          </mxGeometry>
        </mxCell>
        <mxCell id="ClqnMnKsx_Ie9XqVXYmY-275" value="" style="endArrow=classic;html=1;rounded=0;entryX=0;entryY=0.5;entryDx=0;entryDy=0;" edge="1" parent="1">
          <mxGeometry width="50" height="50" relative="1" as="geometry">
            <mxPoint x="1700" y="382.43000000000006" as="sourcePoint" />
            <mxPoint x="1740" y="382.43000000000006" as="targetPoint" />
          </mxGeometry>
        </mxCell>
        <mxCell id="ClqnMnKsx_Ie9XqVXYmY-276" value="q22" style="ellipse;whiteSpace=wrap;html=1;aspect=fixed;" vertex="1" parent="1">
          <mxGeometry x="1740" y="363" width="40" height="40" as="geometry" />
        </mxCell>
        <mxCell id="ClqnMnKsx_Ie9XqVXYmY-277" value="c" style="text;strokeColor=none;fillColor=none;html=1;fontSize=24;fontStyle=1;verticalAlign=middle;align=center;" vertex="1" parent="1">
          <mxGeometry x="1470" y="193" width="20" height="20" as="geometry" />
        </mxCell>
        <mxCell id="ClqnMnKsx_Ie9XqVXYmY-278" value="b" style="text;strokeColor=none;fillColor=none;html=1;fontSize=24;fontStyle=1;verticalAlign=middle;align=center;" vertex="1" parent="1">
          <mxGeometry x="1470" y="133" width="20" height="20" as="geometry" />
        </mxCell>
        <mxCell id="ClqnMnKsx_Ie9XqVXYmY-279" value="a" style="text;strokeColor=none;fillColor=none;html=1;fontSize=24;fontStyle=1;verticalAlign=middle;align=center;" vertex="1" parent="1">
          <mxGeometry x="1470" y="373" width="20" height="20" as="geometry" />
        </mxCell>
        <mxCell id="ClqnMnKsx_Ie9XqVXYmY-280" value="a" style="text;strokeColor=none;fillColor=none;html=1;fontSize=24;fontStyle=1;verticalAlign=middle;align=center;" vertex="1" parent="1">
          <mxGeometry x="1590" y="353" width="20" height="20" as="geometry" />
        </mxCell>
        <mxCell id="ClqnMnKsx_Ie9XqVXYmY-281" value="a" style="text;strokeColor=none;fillColor=none;html=1;fontSize=24;fontStyle=1;verticalAlign=middle;align=center;" vertex="1" parent="1">
          <mxGeometry x="1710" y="353" width="20" height="20" as="geometry" />
        </mxCell>
        <mxCell id="ClqnMnKsx_Ie9XqVXYmY-282" value="c" style="text;strokeColor=none;fillColor=none;html=1;fontSize=24;fontStyle=1;verticalAlign=middle;align=center;" vertex="1" parent="1">
          <mxGeometry x="1470" y="958" width="20" height="20" as="geometry" />
        </mxCell>
        <mxCell id="ClqnMnKsx_Ie9XqVXYmY-283" value="b" style="text;strokeColor=none;fillColor=none;html=1;fontSize=24;fontStyle=1;verticalAlign=middle;align=center;" vertex="1" parent="1">
          <mxGeometry x="1470" y="1018" width="20" height="20" as="geometry" />
        </mxCell>
        <mxCell id="ClqnMnKsx_Ie9XqVXYmY-284" value="" style="endArrow=classic;html=1;rounded=0;entryX=0;entryY=0.5;entryDx=0;entryDy=0;" edge="1" parent="1" target="ClqnMnKsx_Ie9XqVXYmY-285">
          <mxGeometry width="50" height="50" relative="1" as="geometry">
            <mxPoint x="1460" y="528" as="sourcePoint" />
            <mxPoint x="1470" y="527.5799999999999" as="targetPoint" />
          </mxGeometry>
        </mxCell>
        <mxCell id="ClqnMnKsx_Ie9XqVXYmY-285" value="q29" style="ellipse;whiteSpace=wrap;html=1;aspect=fixed;" vertex="1" parent="1">
          <mxGeometry x="1500" y="508" width="40" height="40" as="geometry" />
        </mxCell>
        <mxCell id="ClqnMnKsx_Ie9XqVXYmY-286" value="" style="endArrow=classic;html=1;rounded=0;entryX=0;entryY=0.5;entryDx=0;entryDy=0;" edge="1" parent="1">
          <mxGeometry width="50" height="50" relative="1" as="geometry">
            <mxPoint x="1459.5" y="578" as="sourcePoint" />
            <mxPoint x="1499.5" y="578" as="targetPoint" />
          </mxGeometry>
        </mxCell>
        <mxCell id="ClqnMnKsx_Ie9XqVXYmY-287" value="q33" style="ellipse;whiteSpace=wrap;html=1;aspect=fixed;" vertex="1" parent="1">
          <mxGeometry x="1500" y="553" width="40" height="40" as="geometry" />
        </mxCell>
        <mxCell id="ClqnMnKsx_Ie9XqVXYmY-288" value="" style="endArrow=none;html=1;rounded=0;" edge="1" parent="1">
          <mxGeometry width="50" height="50" relative="1" as="geometry">
            <mxPoint x="1460" y="578" as="sourcePoint" />
            <mxPoint x="1460" y="483" as="targetPoint" />
          </mxGeometry>
        </mxCell>
        <mxCell id="ClqnMnKsx_Ie9XqVXYmY-289" value="d" style="text;strokeColor=none;fillColor=none;html=1;fontSize=24;fontStyle=1;verticalAlign=middle;align=center;" vertex="1" parent="1">
          <mxGeometry x="1469.5" y="548" width="20" height="20" as="geometry" />
        </mxCell>
        <mxCell id="ClqnMnKsx_Ie9XqVXYmY-290" value="b" style="text;strokeColor=none;fillColor=none;html=1;fontSize=24;fontStyle=1;verticalAlign=middle;align=center;" vertex="1" parent="1">
          <mxGeometry x="1469.5" y="498" width="20" height="20" as="geometry" />
        </mxCell>
        <mxCell id="ClqnMnKsx_Ie9XqVXYmY-291" value="" style="endArrow=classic;html=1;rounded=0;entryX=0;entryY=0.5;entryDx=0;entryDy=0;" edge="1" parent="1" target="ClqnMnKsx_Ie9XqVXYmY-292">
          <mxGeometry width="50" height="50" relative="1" as="geometry">
            <mxPoint x="1580" y="528" as="sourcePoint" />
            <mxPoint x="1590" y="527.5799999999999" as="targetPoint" />
          </mxGeometry>
        </mxCell>
        <mxCell id="ClqnMnKsx_Ie9XqVXYmY-292" value="q21" style="ellipse;whiteSpace=wrap;html=1;aspect=fixed;" vertex="1" parent="1">
          <mxGeometry x="1620" y="508" width="40" height="40" as="geometry" />
        </mxCell>
        <mxCell id="ClqnMnKsx_Ie9XqVXYmY-293" value="" style="endArrow=classic;html=1;rounded=0;entryX=0;entryY=0.5;entryDx=0;entryDy=0;" edge="1" parent="1">
          <mxGeometry width="50" height="50" relative="1" as="geometry">
            <mxPoint x="1579.5" y="578" as="sourcePoint" />
            <mxPoint x="1619.5" y="578" as="targetPoint" />
          </mxGeometry>
        </mxCell>
        <mxCell id="ClqnMnKsx_Ie9XqVXYmY-294" value="q33" style="ellipse;whiteSpace=wrap;html=1;aspect=fixed;" vertex="1" parent="1">
          <mxGeometry x="1620" y="553" width="40" height="40" as="geometry" />
        </mxCell>
        <mxCell id="ClqnMnKsx_Ie9XqVXYmY-295" value="" style="endArrow=none;html=1;rounded=0;" edge="1" parent="1">
          <mxGeometry width="50" height="50" relative="1" as="geometry">
            <mxPoint x="1580" y="578" as="sourcePoint" />
            <mxPoint x="1580" y="483" as="targetPoint" />
          </mxGeometry>
        </mxCell>
        <mxCell id="ClqnMnKsx_Ie9XqVXYmY-296" value="d" style="text;strokeColor=none;fillColor=none;html=1;fontSize=24;fontStyle=1;verticalAlign=middle;align=center;" vertex="1" parent="1">
          <mxGeometry x="1589.5" y="548" width="20" height="20" as="geometry" />
        </mxCell>
        <mxCell id="ClqnMnKsx_Ie9XqVXYmY-297" value="c" style="text;strokeColor=none;fillColor=none;html=1;fontSize=24;fontStyle=1;verticalAlign=middle;align=center;" vertex="1" parent="1">
          <mxGeometry x="1589.5" y="498" width="20" height="20" as="geometry" />
        </mxCell>
        <mxCell id="ClqnMnKsx_Ie9XqVXYmY-298" value="" style="endArrow=classic;html=1;rounded=0;entryX=0;entryY=0.5;entryDx=0;entryDy=0;" edge="1" parent="1" target="ClqnMnKsx_Ie9XqVXYmY-299">
          <mxGeometry width="50" height="50" relative="1" as="geometry">
            <mxPoint x="1700.75" y="528" as="sourcePoint" />
            <mxPoint x="1710.75" y="527.5799999999999" as="targetPoint" />
          </mxGeometry>
        </mxCell>
        <mxCell id="ClqnMnKsx_Ie9XqVXYmY-299" value="q29" style="ellipse;whiteSpace=wrap;html=1;aspect=fixed;" vertex="1" parent="1">
          <mxGeometry x="1740.75" y="508" width="40" height="40" as="geometry" />
        </mxCell>
        <mxCell id="ClqnMnKsx_Ie9XqVXYmY-300" value="" style="endArrow=classic;html=1;rounded=0;entryX=0;entryY=0.5;entryDx=0;entryDy=0;" edge="1" parent="1">
          <mxGeometry width="50" height="50" relative="1" as="geometry">
            <mxPoint x="1700.25" y="578" as="sourcePoint" />
            <mxPoint x="1740.25" y="578" as="targetPoint" />
          </mxGeometry>
        </mxCell>
        <mxCell id="ClqnMnKsx_Ie9XqVXYmY-301" value="q30" style="ellipse;whiteSpace=wrap;html=1;aspect=fixed;" vertex="1" parent="1">
          <mxGeometry x="1740.75" y="553" width="40" height="40" as="geometry" />
        </mxCell>
        <mxCell id="ClqnMnKsx_Ie9XqVXYmY-302" value="" style="endArrow=none;html=1;rounded=0;" edge="1" parent="1">
          <mxGeometry width="50" height="50" relative="1" as="geometry">
            <mxPoint x="1700.75" y="578" as="sourcePoint" />
            <mxPoint x="1700.75" y="483" as="targetPoint" />
          </mxGeometry>
        </mxCell>
        <mxCell id="ClqnMnKsx_Ie9XqVXYmY-303" value="c" style="text;strokeColor=none;fillColor=none;html=1;fontSize=24;fontStyle=1;verticalAlign=middle;align=center;" vertex="1" parent="1">
          <mxGeometry x="1710.25" y="548" width="20" height="20" as="geometry" />
        </mxCell>
        <mxCell id="ClqnMnKsx_Ie9XqVXYmY-304" value="b" style="text;strokeColor=none;fillColor=none;html=1;fontSize=24;fontStyle=1;verticalAlign=middle;align=center;" vertex="1" parent="1">
          <mxGeometry x="1710.25" y="498" width="20" height="20" as="geometry" />
        </mxCell>
        <mxCell id="ClqnMnKsx_Ie9XqVXYmY-305" value="" style="endArrow=classic;html=1;rounded=0;entryX=0;entryY=0.5;entryDx=0;entryDy=0;" edge="1" parent="1">
          <mxGeometry width="50" height="50" relative="1" as="geometry">
            <mxPoint x="1359.5" y="717.81" as="sourcePoint" />
            <mxPoint x="1439.5" y="717.81" as="targetPoint" />
          </mxGeometry>
        </mxCell>
        <mxCell id="ClqnMnKsx_Ie9XqVXYmY-306" value="q29" style="ellipse;whiteSpace=wrap;html=1;aspect=fixed;" vertex="1" parent="1">
          <mxGeometry x="1439.5" y="698" width="40" height="40" as="geometry" />
        </mxCell>
        <mxCell id="ClqnMnKsx_Ie9XqVXYmY-307" value="" style="endArrow=classic;html=1;rounded=0;entryX=0;entryY=0.5;entryDx=0;entryDy=0;" edge="1" parent="1">
          <mxGeometry width="50" height="50" relative="1" as="geometry">
            <mxPoint x="1479.5" y="717.81" as="sourcePoint" />
            <mxPoint x="1559.5" y="717.81" as="targetPoint" />
          </mxGeometry>
        </mxCell>
        <mxCell id="ClqnMnKsx_Ie9XqVXYmY-308" value="q30" style="ellipse;whiteSpace=wrap;html=1;aspect=fixed;" vertex="1" parent="1">
          <mxGeometry x="1559.5" y="698" width="40" height="40" as="geometry" />
        </mxCell>
        <mxCell id="ClqnMnKsx_Ie9XqVXYmY-309" value="" style="endArrow=classic;html=1;rounded=0;entryX=0;entryY=0.5;entryDx=0;entryDy=0;" edge="1" parent="1">
          <mxGeometry width="50" height="50" relative="1" as="geometry">
            <mxPoint x="1599.5" y="717.81" as="sourcePoint" />
            <mxPoint x="1679.5" y="717.81" as="targetPoint" />
          </mxGeometry>
        </mxCell>
        <mxCell id="ClqnMnKsx_Ie9XqVXYmY-310" value="q31" style="ellipse;whiteSpace=wrap;html=1;aspect=fixed;" vertex="1" parent="1">
          <mxGeometry x="1679.5" y="698" width="40" height="40" as="geometry" />
        </mxCell>
        <mxCell id="ClqnMnKsx_Ie9XqVXYmY-311" value="b" style="text;strokeColor=none;fillColor=none;html=1;fontSize=24;fontStyle=1;verticalAlign=middle;align=center;" vertex="1" parent="1">
          <mxGeometry x="1389.5" y="688" width="20" height="20" as="geometry" />
        </mxCell>
        <mxCell id="ClqnMnKsx_Ie9XqVXYmY-312" value="c" style="text;strokeColor=none;fillColor=none;html=1;fontSize=24;fontStyle=1;verticalAlign=middle;align=center;" vertex="1" parent="1">
          <mxGeometry x="1509.5" y="688" width="20" height="20" as="geometry" />
        </mxCell>
        <mxCell id="ClqnMnKsx_Ie9XqVXYmY-313" value="c" style="text;strokeColor=none;fillColor=none;html=1;fontSize=24;fontStyle=1;verticalAlign=middle;align=center;" vertex="1" parent="1">
          <mxGeometry x="1629.5" y="688" width="20" height="20" as="geometry" />
        </mxCell>
        <mxCell id="ClqnMnKsx_Ie9XqVXYmY-314" value="" style="endArrow=classic;html=1;rounded=0;entryX=0;entryY=0.5;entryDx=0;entryDy=0;" edge="1" parent="1">
          <mxGeometry width="50" height="50" relative="1" as="geometry">
            <mxPoint x="1719.5" y="717.81" as="sourcePoint" />
            <mxPoint x="1799.5" y="717.81" as="targetPoint" />
          </mxGeometry>
        </mxCell>
        <mxCell id="ClqnMnKsx_Ie9XqVXYmY-315" value="q32" style="ellipse;whiteSpace=wrap;html=1;aspect=fixed;fillColor=#b1ddf0;strokeColor=#10739e;" vertex="1" parent="1">
          <mxGeometry x="1799.5" y="698" width="40" height="40" as="geometry" />
        </mxCell>
        <mxCell id="ClqnMnKsx_Ie9XqVXYmY-316" value="c" style="text;strokeColor=none;fillColor=none;html=1;fontSize=24;fontStyle=1;verticalAlign=middle;align=center;" vertex="1" parent="1">
          <mxGeometry x="1749.5" y="688" width="20" height="20" as="geometry" />
        </mxCell>
        <mxCell id="ClqnMnKsx_Ie9XqVXYmY-317" value="" style="endArrow=none;html=1;rounded=0;" edge="1" parent="1">
          <mxGeometry width="50" height="50" relative="1" as="geometry">
            <mxPoint x="1459.71" y="698" as="sourcePoint" />
            <mxPoint x="1459.5" y="638" as="targetPoint" />
          </mxGeometry>
        </mxCell>
        <mxCell id="ClqnMnKsx_Ie9XqVXYmY-318" value="" style="endArrow=classic;html=1;rounded=0;entryX=0;entryY=0.5;entryDx=0;entryDy=0;" edge="1" parent="1">
          <mxGeometry width="50" height="50" relative="1" as="geometry">
            <mxPoint x="1459.5" y="637.4300000000001" as="sourcePoint" />
            <mxPoint x="1499.5" y="637.4300000000001" as="targetPoint" />
          </mxGeometry>
        </mxCell>
        <mxCell id="ClqnMnKsx_Ie9XqVXYmY-319" value="q22" style="ellipse;whiteSpace=wrap;html=1;aspect=fixed;" vertex="1" parent="1">
          <mxGeometry x="1499.5" y="618" width="40" height="40" as="geometry" />
        </mxCell>
        <mxCell id="ClqnMnKsx_Ie9XqVXYmY-320" value="" style="endArrow=none;html=1;rounded=0;" edge="1" parent="1">
          <mxGeometry width="50" height="50" relative="1" as="geometry">
            <mxPoint x="1580.21" y="698" as="sourcePoint" />
            <mxPoint x="1580" y="638" as="targetPoint" />
          </mxGeometry>
        </mxCell>
        <mxCell id="ClqnMnKsx_Ie9XqVXYmY-321" value="" style="endArrow=classic;html=1;rounded=0;entryX=0;entryY=0.5;entryDx=0;entryDy=0;" edge="1" parent="1">
          <mxGeometry width="50" height="50" relative="1" as="geometry">
            <mxPoint x="1580" y="637.4300000000001" as="sourcePoint" />
            <mxPoint x="1620" y="637.4300000000001" as="targetPoint" />
          </mxGeometry>
        </mxCell>
        <mxCell id="ClqnMnKsx_Ie9XqVXYmY-322" value="q22" style="ellipse;whiteSpace=wrap;html=1;aspect=fixed;" vertex="1" parent="1">
          <mxGeometry x="1620" y="618" width="40" height="40" as="geometry" />
        </mxCell>
        <mxCell id="ClqnMnKsx_Ie9XqVXYmY-323" value="" style="endArrow=none;html=1;rounded=0;" edge="1" parent="1">
          <mxGeometry width="50" height="50" relative="1" as="geometry">
            <mxPoint x="1699.71" y="698" as="sourcePoint" />
            <mxPoint x="1699.5" y="638" as="targetPoint" />
          </mxGeometry>
        </mxCell>
        <mxCell id="ClqnMnKsx_Ie9XqVXYmY-324" value="" style="endArrow=classic;html=1;rounded=0;entryX=0;entryY=0.5;entryDx=0;entryDy=0;" edge="1" parent="1">
          <mxGeometry width="50" height="50" relative="1" as="geometry">
            <mxPoint x="1699.5" y="637.4300000000001" as="sourcePoint" />
            <mxPoint x="1739.5" y="637.4300000000001" as="targetPoint" />
          </mxGeometry>
        </mxCell>
        <mxCell id="ClqnMnKsx_Ie9XqVXYmY-325" value="q22" style="ellipse;whiteSpace=wrap;html=1;aspect=fixed;" vertex="1" parent="1">
          <mxGeometry x="1739.5" y="618" width="40" height="40" as="geometry" />
        </mxCell>
        <mxCell id="ClqnMnKsx_Ie9XqVXYmY-326" value="" style="endArrow=classic;html=1;rounded=0;entryX=0;entryY=0.5;entryDx=0;entryDy=0;" edge="1" parent="1" target="ClqnMnKsx_Ie9XqVXYmY-327">
          <mxGeometry width="50" height="50" relative="1" as="geometry">
            <mxPoint x="1459.5" y="783" as="sourcePoint" />
            <mxPoint x="1469.5" y="782.5799999999999" as="targetPoint" />
          </mxGeometry>
        </mxCell>
        <mxCell id="ClqnMnKsx_Ie9XqVXYmY-327" value="q29" style="ellipse;whiteSpace=wrap;html=1;aspect=fixed;" vertex="1" parent="1">
          <mxGeometry x="1499.5" y="763" width="40" height="40" as="geometry" />
        </mxCell>
        <mxCell id="ClqnMnKsx_Ie9XqVXYmY-328" value="" style="endArrow=classic;html=1;rounded=0;entryX=0;entryY=0.5;entryDx=0;entryDy=0;" edge="1" parent="1">
          <mxGeometry width="50" height="50" relative="1" as="geometry">
            <mxPoint x="1459" y="833" as="sourcePoint" />
            <mxPoint x="1499" y="833" as="targetPoint" />
          </mxGeometry>
        </mxCell>
        <mxCell id="ClqnMnKsx_Ie9XqVXYmY-329" value="q33" style="ellipse;whiteSpace=wrap;html=1;aspect=fixed;" vertex="1" parent="1">
          <mxGeometry x="1499.5" y="808" width="40" height="40" as="geometry" />
        </mxCell>
        <mxCell id="ClqnMnKsx_Ie9XqVXYmY-330" value="" style="endArrow=none;html=1;rounded=0;" edge="1" parent="1">
          <mxGeometry width="50" height="50" relative="1" as="geometry">
            <mxPoint x="1459.5" y="833" as="sourcePoint" />
            <mxPoint x="1459.5" y="738" as="targetPoint" />
          </mxGeometry>
        </mxCell>
        <mxCell id="ClqnMnKsx_Ie9XqVXYmY-331" value="d" style="text;strokeColor=none;fillColor=none;html=1;fontSize=24;fontStyle=1;verticalAlign=middle;align=center;" vertex="1" parent="1">
          <mxGeometry x="1469" y="803" width="20" height="20" as="geometry" />
        </mxCell>
        <mxCell id="ClqnMnKsx_Ie9XqVXYmY-332" value="b" style="text;strokeColor=none;fillColor=none;html=1;fontSize=24;fontStyle=1;verticalAlign=middle;align=center;" vertex="1" parent="1">
          <mxGeometry x="1469" y="753" width="20" height="20" as="geometry" />
        </mxCell>
        <mxCell id="ClqnMnKsx_Ie9XqVXYmY-333" value="" style="endArrow=classic;html=1;rounded=0;entryX=0;entryY=0.5;entryDx=0;entryDy=0;" edge="1" parent="1" target="ClqnMnKsx_Ie9XqVXYmY-334">
          <mxGeometry width="50" height="50" relative="1" as="geometry">
            <mxPoint x="1579.5" y="783" as="sourcePoint" />
            <mxPoint x="1589.5" y="782.5799999999999" as="targetPoint" />
          </mxGeometry>
        </mxCell>
        <mxCell id="ClqnMnKsx_Ie9XqVXYmY-334" value="q29" style="ellipse;whiteSpace=wrap;html=1;aspect=fixed;" vertex="1" parent="1">
          <mxGeometry x="1619.5" y="763" width="40" height="40" as="geometry" />
        </mxCell>
        <mxCell id="ClqnMnKsx_Ie9XqVXYmY-335" value="" style="endArrow=classic;html=1;rounded=0;entryX=0;entryY=0.5;entryDx=0;entryDy=0;" edge="1" parent="1">
          <mxGeometry width="50" height="50" relative="1" as="geometry">
            <mxPoint x="1579" y="833" as="sourcePoint" />
            <mxPoint x="1619" y="833" as="targetPoint" />
          </mxGeometry>
        </mxCell>
        <mxCell id="ClqnMnKsx_Ie9XqVXYmY-336" value="q33" style="ellipse;whiteSpace=wrap;html=1;aspect=fixed;" vertex="1" parent="1">
          <mxGeometry x="1619.5" y="808" width="40" height="40" as="geometry" />
        </mxCell>
        <mxCell id="ClqnMnKsx_Ie9XqVXYmY-337" value="" style="endArrow=none;html=1;rounded=0;" edge="1" parent="1">
          <mxGeometry width="50" height="50" relative="1" as="geometry">
            <mxPoint x="1579.5" y="833" as="sourcePoint" />
            <mxPoint x="1579.5" y="738" as="targetPoint" />
          </mxGeometry>
        </mxCell>
        <mxCell id="ClqnMnKsx_Ie9XqVXYmY-338" value="d" style="text;strokeColor=none;fillColor=none;html=1;fontSize=24;fontStyle=1;verticalAlign=middle;align=center;" vertex="1" parent="1">
          <mxGeometry x="1589" y="803" width="20" height="20" as="geometry" />
        </mxCell>
        <mxCell id="ClqnMnKsx_Ie9XqVXYmY-339" value="b" style="text;strokeColor=none;fillColor=none;html=1;fontSize=24;fontStyle=1;verticalAlign=middle;align=center;" vertex="1" parent="1">
          <mxGeometry x="1589" y="753" width="20" height="20" as="geometry" />
        </mxCell>
        <mxCell id="ClqnMnKsx_Ie9XqVXYmY-340" value="" style="endArrow=classic;html=1;rounded=0;entryX=0;entryY=0.5;entryDx=0;entryDy=0;" edge="1" parent="1" target="ClqnMnKsx_Ie9XqVXYmY-341">
          <mxGeometry width="50" height="50" relative="1" as="geometry">
            <mxPoint x="1700.25" y="783" as="sourcePoint" />
            <mxPoint x="1710.25" y="782.5799999999999" as="targetPoint" />
          </mxGeometry>
        </mxCell>
        <mxCell id="ClqnMnKsx_Ie9XqVXYmY-341" value="q29" style="ellipse;whiteSpace=wrap;html=1;aspect=fixed;" vertex="1" parent="1">
          <mxGeometry x="1740.25" y="763" width="40" height="40" as="geometry" />
        </mxCell>
        <mxCell id="ClqnMnKsx_Ie9XqVXYmY-342" value="" style="endArrow=classic;html=1;rounded=0;entryX=0;entryY=0.5;entryDx=0;entryDy=0;" edge="1" parent="1">
          <mxGeometry width="50" height="50" relative="1" as="geometry">
            <mxPoint x="1699.75" y="833" as="sourcePoint" />
            <mxPoint x="1739.75" y="833" as="targetPoint" />
          </mxGeometry>
        </mxCell>
        <mxCell id="ClqnMnKsx_Ie9XqVXYmY-343" value="q33" style="ellipse;whiteSpace=wrap;html=1;aspect=fixed;" vertex="1" parent="1">
          <mxGeometry x="1740.25" y="808" width="40" height="40" as="geometry" />
        </mxCell>
        <mxCell id="ClqnMnKsx_Ie9XqVXYmY-344" value="" style="endArrow=none;html=1;rounded=0;" edge="1" parent="1">
          <mxGeometry width="50" height="50" relative="1" as="geometry">
            <mxPoint x="1700.25" y="833" as="sourcePoint" />
            <mxPoint x="1700.25" y="738" as="targetPoint" />
          </mxGeometry>
        </mxCell>
        <mxCell id="ClqnMnKsx_Ie9XqVXYmY-345" value="d" style="text;strokeColor=none;fillColor=none;html=1;fontSize=24;fontStyle=1;verticalAlign=middle;align=center;" vertex="1" parent="1">
          <mxGeometry x="1709.75" y="803" width="20" height="20" as="geometry" />
        </mxCell>
        <mxCell id="ClqnMnKsx_Ie9XqVXYmY-346" value="b" style="text;strokeColor=none;fillColor=none;html=1;fontSize=24;fontStyle=1;verticalAlign=middle;align=center;" vertex="1" parent="1">
          <mxGeometry x="1709.75" y="753" width="20" height="20" as="geometry" />
        </mxCell>
        <mxCell id="ClqnMnKsx_Ie9XqVXYmY-347" value="" style="endArrow=classic;html=1;rounded=0;entryX=0;entryY=0.5;entryDx=0;entryDy=0;" edge="1" parent="1" target="ClqnMnKsx_Ie9XqVXYmY-348">
          <mxGeometry width="50" height="50" relative="1" as="geometry">
            <mxPoint x="1459.5" y="100" as="sourcePoint" />
            <mxPoint x="1469.5" y="99.57999999999993" as="targetPoint" />
          </mxGeometry>
        </mxCell>
        <mxCell id="ClqnMnKsx_Ie9XqVXYmY-348" value="q23" style="ellipse;whiteSpace=wrap;html=1;aspect=fixed;" vertex="1" parent="1">
          <mxGeometry x="1499.5" y="80" width="40" height="40" as="geometry" />
        </mxCell>
        <mxCell id="ClqnMnKsx_Ie9XqVXYmY-349" value="a" style="text;strokeColor=none;fillColor=none;html=1;fontSize=24;fontStyle=1;verticalAlign=middle;align=center;" vertex="1" parent="1">
          <mxGeometry x="1469.5" y="70" width="20" height="20" as="geometry" />
        </mxCell>
        <mxCell id="ClqnMnKsx_Ie9XqVXYmY-350" value="" style="endArrow=none;html=1;rounded=0;" edge="1" parent="1">
          <mxGeometry width="50" height="50" relative="1" as="geometry">
            <mxPoint x="1579" y="303" as="sourcePoint" />
            <mxPoint x="1579.5" y="100" as="targetPoint" />
          </mxGeometry>
        </mxCell>
        <mxCell id="ClqnMnKsx_Ie9XqVXYmY-351" value="" style="endArrow=classic;html=1;rounded=0;entryX=0;entryY=0.5;entryDx=0;entryDy=0;" edge="1" parent="1" target="ClqnMnKsx_Ie9XqVXYmY-352">
          <mxGeometry width="50" height="50" relative="1" as="geometry">
            <mxPoint x="1579.5" y="163" as="sourcePoint" />
            <mxPoint x="1589.5" y="162.57999999999993" as="targetPoint" />
          </mxGeometry>
        </mxCell>
        <mxCell id="ClqnMnKsx_Ie9XqVXYmY-352" value="q21" style="ellipse;whiteSpace=wrap;html=1;aspect=fixed;" vertex="1" parent="1">
          <mxGeometry x="1619.5" y="143" width="40" height="40" as="geometry" />
        </mxCell>
        <mxCell id="ClqnMnKsx_Ie9XqVXYmY-353" value="" style="endArrow=classic;html=1;rounded=0;entryX=0;entryY=0.5;entryDx=0;entryDy=0;" edge="1" parent="1" target="ClqnMnKsx_Ie9XqVXYmY-354">
          <mxGeometry width="50" height="50" relative="1" as="geometry">
            <mxPoint x="1579.5" y="223" as="sourcePoint" />
            <mxPoint x="1589.5" y="222.57999999999993" as="targetPoint" />
          </mxGeometry>
        </mxCell>
        <mxCell id="ClqnMnKsx_Ie9XqVXYmY-354" value="q34" style="ellipse;whiteSpace=wrap;html=1;aspect=fixed;" vertex="1" parent="1">
          <mxGeometry x="1619.5" y="203" width="40" height="40" as="geometry" />
        </mxCell>
        <mxCell id="ClqnMnKsx_Ie9XqVXYmY-355" value="d" style="text;strokeColor=none;fillColor=none;html=1;fontSize=24;fontStyle=1;verticalAlign=middle;align=center;" vertex="1" parent="1">
          <mxGeometry x="1589.5" y="193" width="20" height="20" as="geometry" />
        </mxCell>
        <mxCell id="ClqnMnKsx_Ie9XqVXYmY-356" value="c" style="text;strokeColor=none;fillColor=none;html=1;fontSize=24;fontStyle=1;verticalAlign=middle;align=center;" vertex="1" parent="1">
          <mxGeometry x="1589.5" y="133" width="20" height="20" as="geometry" />
        </mxCell>
        <mxCell id="ClqnMnKsx_Ie9XqVXYmY-357" value="" style="endArrow=classic;html=1;rounded=0;entryX=0;entryY=0.5;entryDx=0;entryDy=0;" edge="1" parent="1" target="ClqnMnKsx_Ie9XqVXYmY-358">
          <mxGeometry width="50" height="50" relative="1" as="geometry">
            <mxPoint x="1579" y="100" as="sourcePoint" />
            <mxPoint x="1589" y="99.57999999999993" as="targetPoint" />
          </mxGeometry>
        </mxCell>
        <mxCell id="ClqnMnKsx_Ie9XqVXYmY-358" value="q29" style="ellipse;whiteSpace=wrap;html=1;aspect=fixed;" vertex="1" parent="1">
          <mxGeometry x="1619" y="80" width="40" height="40" as="geometry" />
        </mxCell>
        <mxCell id="ClqnMnKsx_Ie9XqVXYmY-359" value="b" style="text;strokeColor=none;fillColor=none;html=1;fontSize=24;fontStyle=1;verticalAlign=middle;align=center;" vertex="1" parent="1">
          <mxGeometry x="1589" y="70" width="20" height="20" as="geometry" />
        </mxCell>
        <mxCell id="ClqnMnKsx_Ie9XqVXYmY-360" value="" style="endArrow=none;html=1;rounded=0;" edge="1" parent="1">
          <mxGeometry width="50" height="50" relative="1" as="geometry">
            <mxPoint x="1700.25" y="303" as="sourcePoint" />
            <mxPoint x="1701" y="40" as="targetPoint" />
          </mxGeometry>
        </mxCell>
        <mxCell id="ClqnMnKsx_Ie9XqVXYmY-361" value="" style="endArrow=classic;html=1;rounded=0;entryX=0;entryY=0.5;entryDx=0;entryDy=0;" edge="1" parent="1" target="ClqnMnKsx_Ie9XqVXYmY-362">
          <mxGeometry width="50" height="50" relative="1" as="geometry">
            <mxPoint x="1700.75" y="163" as="sourcePoint" />
            <mxPoint x="1710.75" y="162.57999999999993" as="targetPoint" />
          </mxGeometry>
        </mxCell>
        <mxCell id="ClqnMnKsx_Ie9XqVXYmY-362" value="q26" style="ellipse;whiteSpace=wrap;html=1;aspect=fixed;" vertex="1" parent="1">
          <mxGeometry x="1740.75" y="143" width="40" height="40" as="geometry" />
        </mxCell>
        <mxCell id="ClqnMnKsx_Ie9XqVXYmY-363" value="" style="endArrow=classic;html=1;rounded=0;entryX=0;entryY=0.5;entryDx=0;entryDy=0;" edge="1" parent="1" target="ClqnMnKsx_Ie9XqVXYmY-364">
          <mxGeometry width="50" height="50" relative="1" as="geometry">
            <mxPoint x="1700.75" y="223" as="sourcePoint" />
            <mxPoint x="1710.75" y="222.57999999999993" as="targetPoint" />
          </mxGeometry>
        </mxCell>
        <mxCell id="ClqnMnKsx_Ie9XqVXYmY-364" value="q33" style="ellipse;whiteSpace=wrap;html=1;aspect=fixed;" vertex="1" parent="1">
          <mxGeometry x="1740.75" y="203" width="40" height="40" as="geometry" />
        </mxCell>
        <mxCell id="ClqnMnKsx_Ie9XqVXYmY-365" value="d" style="text;strokeColor=none;fillColor=none;html=1;fontSize=24;fontStyle=1;verticalAlign=middle;align=center;" vertex="1" parent="1">
          <mxGeometry x="1710.75" y="193" width="20" height="20" as="geometry" />
        </mxCell>
        <mxCell id="ClqnMnKsx_Ie9XqVXYmY-366" value="c" style="text;strokeColor=none;fillColor=none;html=1;fontSize=24;fontStyle=1;verticalAlign=middle;align=center;" vertex="1" parent="1">
          <mxGeometry x="1710.75" y="133" width="20" height="20" as="geometry" />
        </mxCell>
        <mxCell id="ClqnMnKsx_Ie9XqVXYmY-367" value="" style="endArrow=classic;html=1;rounded=0;entryX=0;entryY=0.5;entryDx=0;entryDy=0;" edge="1" parent="1" target="ClqnMnKsx_Ie9XqVXYmY-368">
          <mxGeometry width="50" height="50" relative="1" as="geometry">
            <mxPoint x="1700.25" y="100" as="sourcePoint" />
            <mxPoint x="1710.25" y="99.57999999999993" as="targetPoint" />
          </mxGeometry>
        </mxCell>
        <mxCell id="ClqnMnKsx_Ie9XqVXYmY-368" value="q29" style="ellipse;whiteSpace=wrap;html=1;aspect=fixed;" vertex="1" parent="1">
          <mxGeometry x="1740.25" y="80" width="40" height="40" as="geometry" />
        </mxCell>
        <mxCell id="ClqnMnKsx_Ie9XqVXYmY-369" value="b" style="text;strokeColor=none;fillColor=none;html=1;fontSize=24;fontStyle=1;verticalAlign=middle;align=center;" vertex="1" parent="1">
          <mxGeometry x="1710.25" y="70" width="20" height="20" as="geometry" />
        </mxCell>
        <mxCell id="ClqnMnKsx_Ie9XqVXYmY-370" value="" style="endArrow=classic;html=1;rounded=0;entryX=0;entryY=0.5;entryDx=0;entryDy=0;" edge="1" parent="1" target="ClqnMnKsx_Ie9XqVXYmY-371">
          <mxGeometry width="50" height="50" relative="1" as="geometry">
            <mxPoint x="1459.5" y="1110" as="sourcePoint" />
            <mxPoint x="1469.5" y="1109.58" as="targetPoint" />
          </mxGeometry>
        </mxCell>
        <mxCell id="ClqnMnKsx_Ie9XqVXYmY-371" value="q22" style="ellipse;whiteSpace=wrap;html=1;aspect=fixed;" vertex="1" parent="1">
          <mxGeometry x="1499.5" y="1090" width="40" height="40" as="geometry" />
        </mxCell>
        <mxCell id="ClqnMnKsx_Ie9XqVXYmY-372" value="a" style="text;strokeColor=none;fillColor=none;html=1;fontSize=24;fontStyle=1;verticalAlign=middle;align=center;" vertex="1" parent="1">
          <mxGeometry x="1469.5" y="1080" width="20" height="20" as="geometry" />
        </mxCell>
        <mxCell id="ClqnMnKsx_Ie9XqVXYmY-373" value="" style="endArrow=classic;html=1;rounded=0;entryX=0;entryY=0.5;entryDx=0;entryDy=0;" edge="1" parent="1" target="ClqnMnKsx_Ie9XqVXYmY-374">
          <mxGeometry width="50" height="50" relative="1" as="geometry">
            <mxPoint x="1580.75" y="988" as="sourcePoint" />
            <mxPoint x="1590.75" y="987.5799999999999" as="targetPoint" />
          </mxGeometry>
        </mxCell>
        <mxCell id="ClqnMnKsx_Ie9XqVXYmY-374" value="q34" style="ellipse;whiteSpace=wrap;html=1;aspect=fixed;" vertex="1" parent="1">
          <mxGeometry x="1620.75" y="968" width="40" height="40" as="geometry" />
        </mxCell>
        <mxCell id="ClqnMnKsx_Ie9XqVXYmY-375" value="" style="endArrow=classic;html=1;rounded=0;entryX=0;entryY=0.5;entryDx=0;entryDy=0;" edge="1" parent="1" target="ClqnMnKsx_Ie9XqVXYmY-376">
          <mxGeometry width="50" height="50" relative="1" as="geometry">
            <mxPoint x="1580.75" y="1048" as="sourcePoint" />
            <mxPoint x="1590.75" y="1047.58" as="targetPoint" />
          </mxGeometry>
        </mxCell>
        <mxCell id="ClqnMnKsx_Ie9XqVXYmY-376" value="q21" style="ellipse;whiteSpace=wrap;html=1;aspect=fixed;" vertex="1" parent="1">
          <mxGeometry x="1620.75" y="1028" width="40" height="40" as="geometry" />
        </mxCell>
        <mxCell id="ClqnMnKsx_Ie9XqVXYmY-377" value="" style="endArrow=none;html=1;rounded=0;" edge="1" parent="1">
          <mxGeometry width="50" height="50" relative="1" as="geometry">
            <mxPoint x="1580.75" y="1110" as="sourcePoint" />
            <mxPoint x="1580.33" y="908" as="targetPoint" />
          </mxGeometry>
        </mxCell>
        <mxCell id="ClqnMnKsx_Ie9XqVXYmY-378" value="d" style="text;strokeColor=none;fillColor=none;html=1;fontSize=24;fontStyle=1;verticalAlign=middle;align=center;" vertex="1" parent="1">
          <mxGeometry x="1590.75" y="958" width="20" height="20" as="geometry" />
        </mxCell>
        <mxCell id="ClqnMnKsx_Ie9XqVXYmY-379" value="c" style="text;strokeColor=none;fillColor=none;html=1;fontSize=24;fontStyle=1;verticalAlign=middle;align=center;" vertex="1" parent="1">
          <mxGeometry x="1590.75" y="1018" width="20" height="20" as="geometry" />
        </mxCell>
        <mxCell id="ClqnMnKsx_Ie9XqVXYmY-380" value="" style="endArrow=classic;html=1;rounded=0;entryX=0;entryY=0.5;entryDx=0;entryDy=0;" edge="1" parent="1" target="ClqnMnKsx_Ie9XqVXYmY-381">
          <mxGeometry width="50" height="50" relative="1" as="geometry">
            <mxPoint x="1580.25" y="1110" as="sourcePoint" />
            <mxPoint x="1590.25" y="1109.58" as="targetPoint" />
          </mxGeometry>
        </mxCell>
        <mxCell id="ClqnMnKsx_Ie9XqVXYmY-381" value="q29" style="ellipse;whiteSpace=wrap;html=1;aspect=fixed;" vertex="1" parent="1">
          <mxGeometry x="1620.25" y="1090" width="40" height="40" as="geometry" />
        </mxCell>
        <mxCell id="ClqnMnKsx_Ie9XqVXYmY-382" value="b" style="text;strokeColor=none;fillColor=none;html=1;fontSize=24;fontStyle=1;verticalAlign=middle;align=center;" vertex="1" parent="1">
          <mxGeometry x="1590.25" y="1080" width="20" height="20" as="geometry" />
        </mxCell>
        <mxCell id="ClqnMnKsx_Ie9XqVXYmY-383" value="" style="endArrow=classic;html=1;rounded=0;entryX=0;entryY=0.5;entryDx=0;entryDy=0;" edge="1" parent="1" target="ClqnMnKsx_Ie9XqVXYmY-384">
          <mxGeometry width="50" height="50" relative="1" as="geometry">
            <mxPoint x="1700.75" y="988" as="sourcePoint" />
            <mxPoint x="1710.75" y="987.5799999999999" as="targetPoint" />
          </mxGeometry>
        </mxCell>
        <mxCell id="ClqnMnKsx_Ie9XqVXYmY-384" value="q33" style="ellipse;whiteSpace=wrap;html=1;aspect=fixed;" vertex="1" parent="1">
          <mxGeometry x="1740.75" y="968" width="40" height="40" as="geometry" />
        </mxCell>
        <mxCell id="ClqnMnKsx_Ie9XqVXYmY-385" value="" style="endArrow=classic;html=1;rounded=0;entryX=0;entryY=0.5;entryDx=0;entryDy=0;" edge="1" parent="1" target="ClqnMnKsx_Ie9XqVXYmY-386">
          <mxGeometry width="50" height="50" relative="1" as="geometry">
            <mxPoint x="1700.75" y="1048" as="sourcePoint" />
            <mxPoint x="1710.75" y="1047.58" as="targetPoint" />
          </mxGeometry>
        </mxCell>
        <mxCell id="ClqnMnKsx_Ie9XqVXYmY-386" value="q26" style="ellipse;whiteSpace=wrap;html=1;aspect=fixed;" vertex="1" parent="1">
          <mxGeometry x="1740.75" y="1028" width="40" height="40" as="geometry" />
        </mxCell>
        <mxCell id="ClqnMnKsx_Ie9XqVXYmY-387" value="" style="endArrow=none;html=1;rounded=0;" edge="1" parent="1">
          <mxGeometry width="50" height="50" relative="1" as="geometry">
            <mxPoint x="1700.75" y="1110" as="sourcePoint" />
            <mxPoint x="1700.33" y="908" as="targetPoint" />
          </mxGeometry>
        </mxCell>
        <mxCell id="ClqnMnKsx_Ie9XqVXYmY-388" value="d" style="text;strokeColor=none;fillColor=none;html=1;fontSize=24;fontStyle=1;verticalAlign=middle;align=center;" vertex="1" parent="1">
          <mxGeometry x="1710.75" y="958" width="20" height="20" as="geometry" />
        </mxCell>
        <mxCell id="ClqnMnKsx_Ie9XqVXYmY-389" value="c" style="text;strokeColor=none;fillColor=none;html=1;fontSize=24;fontStyle=1;verticalAlign=middle;align=center;" vertex="1" parent="1">
          <mxGeometry x="1710.75" y="1018" width="20" height="20" as="geometry" />
        </mxCell>
        <mxCell id="ClqnMnKsx_Ie9XqVXYmY-390" value="" style="endArrow=classic;html=1;rounded=0;entryX=0;entryY=0.5;entryDx=0;entryDy=0;" edge="1" parent="1" target="ClqnMnKsx_Ie9XqVXYmY-391">
          <mxGeometry width="50" height="50" relative="1" as="geometry">
            <mxPoint x="1700.25" y="1110" as="sourcePoint" />
            <mxPoint x="1710.25" y="1109.58" as="targetPoint" />
          </mxGeometry>
        </mxCell>
        <mxCell id="ClqnMnKsx_Ie9XqVXYmY-391" value="q23" style="ellipse;whiteSpace=wrap;html=1;aspect=fixed;" vertex="1" parent="1">
          <mxGeometry x="1740.25" y="1090" width="40" height="40" as="geometry" />
        </mxCell>
        <mxCell id="ClqnMnKsx_Ie9XqVXYmY-392" value="a" style="text;strokeColor=none;fillColor=none;html=1;fontSize=24;fontStyle=1;verticalAlign=middle;align=center;" vertex="1" parent="1">
          <mxGeometry x="1710.25" y="1080" width="20" height="20" as="geometry" />
        </mxCell>
        <mxCell id="ClqnMnKsx_Ie9XqVXYmY-393" value="a" style="text;strokeColor=none;fillColor=none;html=1;fontSize=24;fontStyle=1;verticalAlign=middle;align=center;" vertex="1" parent="1">
          <mxGeometry x="1469" y="610" width="20" height="20" as="geometry" />
        </mxCell>
        <mxCell id="ClqnMnKsx_Ie9XqVXYmY-394" value="a" style="text;strokeColor=none;fillColor=none;html=1;fontSize=24;fontStyle=1;verticalAlign=middle;align=center;" vertex="1" parent="1">
          <mxGeometry x="1590.75" y="610" width="20" height="20" as="geometry" />
        </mxCell>
        <mxCell id="ClqnMnKsx_Ie9XqVXYmY-395" value="a" style="text;strokeColor=none;fillColor=none;html=1;fontSize=24;fontStyle=1;verticalAlign=middle;align=center;" vertex="1" parent="1">
          <mxGeometry x="1709.75" y="610" width="20" height="20" as="geometry" />
        </mxCell>
        <mxCell id="ClqnMnKsx_Ie9XqVXYmY-401" value="q21" style="ellipse;whiteSpace=wrap;html=1;aspect=fixed;" vertex="1" parent="1">
          <mxGeometry x="1310" y="498" width="40" height="40" as="geometry" />
        </mxCell>
        <mxCell id="ClqnMnKsx_Ie9XqVXYmY-403" value="a" style="text;strokeColor=none;fillColor=none;html=1;fontSize=24;fontStyle=1;verticalAlign=middle;align=center;" vertex="1" parent="1">
          <mxGeometry x="1400" y="443" width="20" height="20" as="geometry" />
        </mxCell>
        <mxCell id="ClqnMnKsx_Ie9XqVXYmY-404" value="" style="endArrow=classic;html=1;rounded=0;entryX=0;entryY=0.5;entryDx=0;entryDy=0;" edge="1" parent="1" target="ClqnMnKsx_Ie9XqVXYmY-405">
          <mxGeometry width="50" height="50" relative="1" as="geometry">
            <mxPoint x="1820.5" y="783" as="sourcePoint" />
            <mxPoint x="1830.5" y="782.5799999999999" as="targetPoint" />
          </mxGeometry>
        </mxCell>
        <mxCell id="ClqnMnKsx_Ie9XqVXYmY-405" value="q21" style="ellipse;whiteSpace=wrap;html=1;aspect=fixed;" vertex="1" parent="1">
          <mxGeometry x="1860.5" y="763" width="40" height="40" as="geometry" />
        </mxCell>
        <mxCell id="ClqnMnKsx_Ie9XqVXYmY-406" value="" style="endArrow=classic;html=1;rounded=0;entryX=0;entryY=0.5;entryDx=0;entryDy=0;" edge="1" parent="1">
          <mxGeometry width="50" height="50" relative="1" as="geometry">
            <mxPoint x="1820" y="833" as="sourcePoint" />
            <mxPoint x="1860" y="833" as="targetPoint" />
          </mxGeometry>
        </mxCell>
        <mxCell id="ClqnMnKsx_Ie9XqVXYmY-407" value="q33" style="ellipse;whiteSpace=wrap;html=1;aspect=fixed;" vertex="1" parent="1">
          <mxGeometry x="1860.5" y="808" width="40" height="40" as="geometry" />
        </mxCell>
        <mxCell id="ClqnMnKsx_Ie9XqVXYmY-408" value="" style="endArrow=none;html=1;rounded=0;" edge="1" parent="1">
          <mxGeometry width="50" height="50" relative="1" as="geometry">
            <mxPoint x="1820.5" y="833" as="sourcePoint" />
            <mxPoint x="1820.5" y="738" as="targetPoint" />
          </mxGeometry>
        </mxCell>
        <mxCell id="ClqnMnKsx_Ie9XqVXYmY-409" value="d" style="text;strokeColor=none;fillColor=none;html=1;fontSize=24;fontStyle=1;verticalAlign=middle;align=center;" vertex="1" parent="1">
          <mxGeometry x="1830" y="803" width="20" height="20" as="geometry" />
        </mxCell>
        <mxCell id="ClqnMnKsx_Ie9XqVXYmY-410" value="c" style="text;strokeColor=none;fillColor=none;html=1;fontSize=24;fontStyle=1;verticalAlign=middle;align=center;" vertex="1" parent="1">
          <mxGeometry x="1830" y="753" width="20" height="20" as="geometry" />
        </mxCell>
        <mxCell id="ClqnMnKsx_Ie9XqVXYmY-411" value="" style="endArrow=classic;html=1;rounded=0;entryX=0;entryY=0.5;entryDx=0;entryDy=0;" edge="1" parent="1" target="ClqnMnKsx_Ie9XqVXYmY-412">
          <mxGeometry width="50" height="50" relative="1" as="geometry">
            <mxPoint x="1820.5" y="528" as="sourcePoint" />
            <mxPoint x="1830.5" y="527.5799999999999" as="targetPoint" />
          </mxGeometry>
        </mxCell>
        <mxCell id="ClqnMnKsx_Ie9XqVXYmY-412" value="q21" style="ellipse;whiteSpace=wrap;html=1;aspect=fixed;" vertex="1" parent="1">
          <mxGeometry x="1860.5" y="508" width="40" height="40" as="geometry" />
        </mxCell>
        <mxCell id="ClqnMnKsx_Ie9XqVXYmY-413" value="" style="endArrow=classic;html=1;rounded=0;entryX=0;entryY=0.5;entryDx=0;entryDy=0;" edge="1" parent="1">
          <mxGeometry width="50" height="50" relative="1" as="geometry">
            <mxPoint x="1820" y="578" as="sourcePoint" />
            <mxPoint x="1860" y="578" as="targetPoint" />
          </mxGeometry>
        </mxCell>
        <mxCell id="ClqnMnKsx_Ie9XqVXYmY-414" value="q34" style="ellipse;whiteSpace=wrap;html=1;aspect=fixed;" vertex="1" parent="1">
          <mxGeometry x="1860.5" y="553" width="40" height="40" as="geometry" />
        </mxCell>
        <mxCell id="ClqnMnKsx_Ie9XqVXYmY-415" value="" style="endArrow=none;html=1;rounded=0;" edge="1" parent="1">
          <mxGeometry width="50" height="50" relative="1" as="geometry">
            <mxPoint x="1820.5" y="578" as="sourcePoint" />
            <mxPoint x="1820.5" y="483" as="targetPoint" />
          </mxGeometry>
        </mxCell>
        <mxCell id="ClqnMnKsx_Ie9XqVXYmY-416" value="d" style="text;strokeColor=none;fillColor=none;html=1;fontSize=24;fontStyle=1;verticalAlign=middle;align=center;" vertex="1" parent="1">
          <mxGeometry x="1830" y="548" width="20" height="20" as="geometry" />
        </mxCell>
        <mxCell id="ClqnMnKsx_Ie9XqVXYmY-417" value="c" style="text;strokeColor=none;fillColor=none;html=1;fontSize=24;fontStyle=1;verticalAlign=middle;align=center;" vertex="1" parent="1">
          <mxGeometry x="1830" y="498" width="20" height="20" as="geometry" />
        </mxCell>
        <mxCell id="ClqnMnKsx_Ie9XqVXYmY-425" value="" style="endArrow=classic;html=1;rounded=0;entryX=0;entryY=0.5;entryDx=0;entryDy=0;" edge="1" parent="1" target="ClqnMnKsx_Ie9XqVXYmY-426">
          <mxGeometry width="50" height="50" relative="1" as="geometry">
            <mxPoint x="1820.5" y="988" as="sourcePoint" />
            <mxPoint x="1830.5" y="987.5799999999999" as="targetPoint" />
          </mxGeometry>
        </mxCell>
        <mxCell id="ClqnMnKsx_Ie9XqVXYmY-426" value="q33" style="ellipse;whiteSpace=wrap;html=1;aspect=fixed;" vertex="1" parent="1">
          <mxGeometry x="1860.5" y="968" width="40" height="40" as="geometry" />
        </mxCell>
        <mxCell id="ClqnMnKsx_Ie9XqVXYmY-427" value="" style="endArrow=classic;html=1;rounded=0;entryX=0;entryY=0.5;entryDx=0;entryDy=0;" edge="1" parent="1" target="ClqnMnKsx_Ie9XqVXYmY-428">
          <mxGeometry width="50" height="50" relative="1" as="geometry">
            <mxPoint x="1820.5" y="1048" as="sourcePoint" />
            <mxPoint x="1830.5" y="1047.58" as="targetPoint" />
          </mxGeometry>
        </mxCell>
        <mxCell id="ClqnMnKsx_Ie9XqVXYmY-428" value="q30" style="ellipse;whiteSpace=wrap;html=1;aspect=fixed;" vertex="1" parent="1">
          <mxGeometry x="1860.5" y="1028" width="40" height="40" as="geometry" />
        </mxCell>
        <mxCell id="ClqnMnKsx_Ie9XqVXYmY-429" value="" style="endArrow=none;html=1;rounded=0;" edge="1" parent="1">
          <mxGeometry width="50" height="50" relative="1" as="geometry">
            <mxPoint x="1820" y="1170" as="sourcePoint" />
            <mxPoint x="1820.08" y="908" as="targetPoint" />
          </mxGeometry>
        </mxCell>
        <mxCell id="ClqnMnKsx_Ie9XqVXYmY-430" value="d" style="text;strokeColor=none;fillColor=none;html=1;fontSize=24;fontStyle=1;verticalAlign=middle;align=center;" vertex="1" parent="1">
          <mxGeometry x="1830.5" y="958" width="20" height="20" as="geometry" />
        </mxCell>
        <mxCell id="ClqnMnKsx_Ie9XqVXYmY-431" value="c" style="text;strokeColor=none;fillColor=none;html=1;fontSize=24;fontStyle=1;verticalAlign=middle;align=center;" vertex="1" parent="1">
          <mxGeometry x="1830.5" y="1018" width="20" height="20" as="geometry" />
        </mxCell>
        <mxCell id="ClqnMnKsx_Ie9XqVXYmY-432" value="" style="endArrow=classic;html=1;rounded=0;entryX=0;entryY=0.5;entryDx=0;entryDy=0;" edge="1" parent="1" target="ClqnMnKsx_Ie9XqVXYmY-433">
          <mxGeometry width="50" height="50" relative="1" as="geometry">
            <mxPoint x="1820" y="1110" as="sourcePoint" />
            <mxPoint x="1830" y="1109.58" as="targetPoint" />
          </mxGeometry>
        </mxCell>
        <mxCell id="ClqnMnKsx_Ie9XqVXYmY-433" value="q29" style="ellipse;whiteSpace=wrap;html=1;aspect=fixed;" vertex="1" parent="1">
          <mxGeometry x="1860" y="1090" width="40" height="40" as="geometry" />
        </mxCell>
        <mxCell id="ClqnMnKsx_Ie9XqVXYmY-434" value="b" style="text;strokeColor=none;fillColor=none;html=1;fontSize=24;fontStyle=1;verticalAlign=middle;align=center;" vertex="1" parent="1">
          <mxGeometry x="1830" y="1080" width="20" height="20" as="geometry" />
        </mxCell>
        <mxCell id="ClqnMnKsx_Ie9XqVXYmY-435" value="" style="endArrow=classic;html=1;rounded=0;entryX=0;entryY=0.5;entryDx=0;entryDy=0;" edge="1" parent="1" target="ClqnMnKsx_Ie9XqVXYmY-436">
          <mxGeometry width="50" height="50" relative="1" as="geometry">
            <mxPoint x="1820.5" y="360" as="sourcePoint" />
            <mxPoint x="1830.5" y="359.5799999999999" as="targetPoint" />
          </mxGeometry>
        </mxCell>
        <mxCell id="ClqnMnKsx_Ie9XqVXYmY-436" value="q22" style="ellipse;whiteSpace=wrap;html=1;aspect=fixed;" vertex="1" parent="1">
          <mxGeometry x="1860.5" y="340" width="40" height="40" as="geometry" />
        </mxCell>
        <mxCell id="ClqnMnKsx_Ie9XqVXYmY-437" value="" style="endArrow=classic;html=1;rounded=0;entryX=0;entryY=0.5;entryDx=0;entryDy=0;" edge="1" parent="1">
          <mxGeometry width="50" height="50" relative="1" as="geometry">
            <mxPoint x="1820" y="410" as="sourcePoint" />
            <mxPoint x="1860" y="410" as="targetPoint" />
          </mxGeometry>
        </mxCell>
        <mxCell id="ClqnMnKsx_Ie9XqVXYmY-438" value="q29" style="ellipse;whiteSpace=wrap;html=1;aspect=fixed;" vertex="1" parent="1">
          <mxGeometry x="1860.5" y="385" width="40" height="40" as="geometry" />
        </mxCell>
        <mxCell id="ClqnMnKsx_Ie9XqVXYmY-439" value="b" style="text;strokeColor=none;fillColor=none;html=1;fontSize=24;fontStyle=1;verticalAlign=middle;align=center;" vertex="1" parent="1">
          <mxGeometry x="1830" y="380" width="20" height="20" as="geometry" />
        </mxCell>
        <mxCell id="ClqnMnKsx_Ie9XqVXYmY-440" value="a" style="text;strokeColor=none;fillColor=none;html=1;fontSize=24;fontStyle=1;verticalAlign=middle;align=center;" vertex="1" parent="1">
          <mxGeometry x="1830" y="330" width="20" height="20" as="geometry" />
        </mxCell>
        <mxCell id="ClqnMnKsx_Ie9XqVXYmY-441" value="" style="endArrow=none;html=1;rounded=0;" edge="1" parent="1">
          <mxGeometry width="50" height="50" relative="1" as="geometry">
            <mxPoint x="1819.4" y="443" as="sourcePoint" />
            <mxPoint x="1820" y="360" as="targetPoint" />
          </mxGeometry>
        </mxCell>
        <mxCell id="ClqnMnKsx_Ie9XqVXYmY-443" value="" style="endArrow=classic;html=1;rounded=0;entryX=0;entryY=0.5;entryDx=0;entryDy=0;" edge="1" parent="1" target="ClqnMnKsx_Ie9XqVXYmY-444">
          <mxGeometry width="50" height="50" relative="1" as="geometry">
            <mxPoint x="1820.5" y="615" as="sourcePoint" />
            <mxPoint x="1830.5" y="614.5799999999999" as="targetPoint" />
          </mxGeometry>
        </mxCell>
        <mxCell id="ClqnMnKsx_Ie9XqVXYmY-444" value="q22" style="ellipse;whiteSpace=wrap;html=1;aspect=fixed;" vertex="1" parent="1">
          <mxGeometry x="1860.5" y="595" width="40" height="40" as="geometry" />
        </mxCell>
        <mxCell id="ClqnMnKsx_Ie9XqVXYmY-445" value="" style="endArrow=classic;html=1;rounded=0;entryX=0;entryY=0.5;entryDx=0;entryDy=0;" edge="1" parent="1">
          <mxGeometry width="50" height="50" relative="1" as="geometry">
            <mxPoint x="1820" y="665" as="sourcePoint" />
            <mxPoint x="1860" y="665" as="targetPoint" />
          </mxGeometry>
        </mxCell>
        <mxCell id="ClqnMnKsx_Ie9XqVXYmY-446" value="q29" style="ellipse;whiteSpace=wrap;html=1;aspect=fixed;" vertex="1" parent="1">
          <mxGeometry x="1860.5" y="640" width="40" height="40" as="geometry" />
        </mxCell>
        <mxCell id="ClqnMnKsx_Ie9XqVXYmY-447" value="b" style="text;strokeColor=none;fillColor=none;html=1;fontSize=24;fontStyle=1;verticalAlign=middle;align=center;" vertex="1" parent="1">
          <mxGeometry x="1830" y="635" width="20" height="20" as="geometry" />
        </mxCell>
        <mxCell id="ClqnMnKsx_Ie9XqVXYmY-448" value="a" style="text;strokeColor=none;fillColor=none;html=1;fontSize=24;fontStyle=1;verticalAlign=middle;align=center;" vertex="1" parent="1">
          <mxGeometry x="1830" y="585" width="20" height="20" as="geometry" />
        </mxCell>
        <mxCell id="ClqnMnKsx_Ie9XqVXYmY-449" value="" style="endArrow=none;html=1;rounded=0;" edge="1" parent="1">
          <mxGeometry width="50" height="50" relative="1" as="geometry">
            <mxPoint x="1819.4" y="698" as="sourcePoint" />
            <mxPoint x="1820" y="615" as="targetPoint" />
          </mxGeometry>
        </mxCell>
        <mxCell id="ClqnMnKsx_Ie9XqVXYmY-450" value="" style="endArrow=classic;html=1;rounded=0;entryX=0;entryY=0.5;entryDx=0;entryDy=0;" edge="1" parent="1" target="ClqnMnKsx_Ie9XqVXYmY-451">
          <mxGeometry width="50" height="50" relative="1" as="geometry">
            <mxPoint x="1820" y="1170" as="sourcePoint" />
            <mxPoint x="1830" y="1169.58" as="targetPoint" />
          </mxGeometry>
        </mxCell>
        <mxCell id="ClqnMnKsx_Ie9XqVXYmY-451" value="q22" style="ellipse;whiteSpace=wrap;html=1;aspect=fixed;" vertex="1" parent="1">
          <mxGeometry x="1860" y="1150" width="40" height="40" as="geometry" />
        </mxCell>
        <mxCell id="ClqnMnKsx_Ie9XqVXYmY-452" value="a" style="text;strokeColor=none;fillColor=none;html=1;fontSize=24;fontStyle=1;verticalAlign=middle;align=center;" vertex="1" parent="1">
          <mxGeometry x="1830" y="1140" width="20" height="20" as="geometry" />
        </mxCell>
        <mxCell id="ClqnMnKsx_Ie9XqVXYmY-453" value="" style="endArrow=classic;html=1;rounded=0;entryX=0;entryY=0.5;entryDx=0;entryDy=0;" edge="1" parent="1" target="ClqnMnKsx_Ie9XqVXYmY-454">
          <mxGeometry width="50" height="50" relative="1" as="geometry">
            <mxPoint x="1700.75" y="40" as="sourcePoint" />
            <mxPoint x="1710.75" y="39.57999999999993" as="targetPoint" />
          </mxGeometry>
        </mxCell>
        <mxCell id="ClqnMnKsx_Ie9XqVXYmY-454" value="q23" style="ellipse;whiteSpace=wrap;html=1;aspect=fixed;" vertex="1" parent="1">
          <mxGeometry x="1740.75" y="20" width="40" height="40" as="geometry" />
        </mxCell>
        <mxCell id="ClqnMnKsx_Ie9XqVXYmY-455" value="a" style="text;strokeColor=none;fillColor=none;html=1;fontSize=24;fontStyle=1;verticalAlign=middle;align=center;" vertex="1" parent="1">
          <mxGeometry x="1710.75" y="10" width="20" height="20" as="geometry" />
        </mxCell>
      </root>
    </mxGraphModel>
  </diagram>
</mxfile>
